<?xml version="1.0" standalone="no"?>
<!DOCTYPE svg PUBLIC "-//W3C//DTD SVG 20010904//EN"
 "http://www.w3.org/TR/2001/REC-SVG-20010904/DTD/svg10.dtd">
<svg version="1.0" xmlns="http://www.w3.org/2000/svg"
 width="300.000000pt" height="83.000000pt" viewBox="0 0 300.000000 83.000000"
 preserveAspectRatio="xMidYMid meet">
<metadata>
Created by potrace 1.10, written by Peter Selinger 2001-2011
</metadata>
<g transform="translate(0.000000,83.000000) scale(0.100000,-0.100000)"
fill="#000000" stroke="none">
<path d="M293 801 c-143 -53 -237 -166 -265 -320 -30 -160 65 -346 215 -423
106 -53 241 -55 353 -4 110 50 213 181 230 291 l6 44 47 3 c42 3 46 5 46 28 0
23 -4 25 -46 28 l-47 3 -11 57 c-14 69 -55 144 -110 196 l-40 39 -128 -2
c-120 -2 -132 -4 -190 -32 -228 -110 -227 -457 2 -577 43 -23 66 -27 175 -32
l125 -6 -60 -29 c-54 -26 -70 -29 -165 -29 -94 -1 -111 2 -162 26 -158 74
-255 250 -228 414 32 196 193 333 391 334 59 0 149 -22 187 -47 13 -8 26 -12
29 -9 4 3 -21 18 -53 33 -79 37 -221 44 -301 14z m419 -131 c44 -50 93 -144
85 -164 -3 -8 -20 -16 -39 -18 -18 -3 -40 -8 -50 -12 -13 -6 -19 3 -32 46 -24
83 -86 128 -176 128 -67 0 -135 -33 -166 -79 -53 -81 -54 -211 -1 -288 63 -93
238 -110 316 -32 35 34 39 63 14 91 -21 23 -54 23 -95 -2 -18 -11 -39 -20 -45
-20 -27 0 -93 36 -93 50 0 13 1 13 10 0 6 -10 10 -11 10 -2 0 8 24 12 84 12
47 0 96 4 110 10 21 8 33 5 62 -15 20 -14 50 -25 66 -25 28 0 29 -2 23 -33
-11 -49 -39 -97 -83 -146 l-41 -43 -128 4 c-105 4 -135 8 -168 25 -78 41 -128
105 -151 193 -28 112 2 218 86 294 56 51 80 59 195 65 167 10 162 11 207 -39z
m-112 -68 c48 -35 82 -142 57 -177 -13 -16 -28 -18 -141 -17 -69 1 -126 0
-126 -2 0 -18 34 -78 52 -90 33 -23 109 -21 142 5 35 28 70 22 74 -12 3 -29
-24 -54 -86 -79 -74 -29 -192 13 -228 82 -22 42 -29 133 -15 186 24 87 101
137 196 127 27 -2 61 -13 75 -23z m220 -182 l0 -40 -50 0 c-44 0 -52 3 -62 25
-17 37 4 55 63 55 l49 0 0 -40z"/>
<path d="M440 533 c-26 -18 -40 -33 -40 -45 0 -5 43 -8 95 -8 86 0 94 2 88 18
-19 53 -91 71 -143 35z"/>
<path d="M858 643 c17 -2 47 -2 65 0 17 2 3 4 -33 4 -36 0 -50 -2 -32 -4z"/>
<path d="M1098 643 c45 -2 119 -2 165 0 45 1 8 3 -83 3 -91 0 -128 -2 -82 -3z"/>
<path d="M1693 643 c37 -2 97 -2 135 0 37 2 6 3 -68 3 -74 0 -105 -1 -67 -3z"/>
<path d="M2098 643 c18 -2 45 -2 60 0 15 2 0 4 -33 4 -33 0 -45 -2 -27 -4z"/>
<path d="M2408 643 c23 -2 59 -2 80 0 20 2 1 4 -43 4 -44 0 -61 -2 -37 -4z"/>
<path d="M2819 635 c54 -17 107 -67 122 -114 15 -47 32 -65 19 -21 -22 78
-104 151 -166 149 -10 0 1 -6 25 -14z"/>
<path d="M1908 568 c-2 -18 -7 -32 -13 -31 -15 2 -36 -18 -29 -28 3 -5 14 -9
24 -9 17 0 20 -9 22 -91 2 -73 6 -94 20 -103 21 -13 66 1 82 26 15 24 1 33
-30 19 -15 -6 -28 -10 -29 -9 -1 2 -5 38 -8 81 l-6 78 32 -3 c26 -2 32 1 32
17 0 15 -7 20 -30 20 -26 1 -30 4 -30 30 0 44 -33 47 -37 3z"/>
<path d="M995 531 c-5 -9 -8 -144 -5 -221 0 -15 30 -12 31 3 0 6 0 41 -1 77
-1 58 2 68 24 89 13 12 32 21 43 19 15 -3 19 -16 23 -98 4 -76 8 -95 20 -95
12 0 16 19 18 102 3 101 2 102 -24 119 -21 15 -33 16 -65 7 -23 -6 -42 -6 -47
-1 -6 6 -12 5 -17 -1z"/>
<path d="M1238 511 c-30 -27 -33 -34 -33 -91 0 -57 3 -64 33 -91 96 -86 215
32 157 156 -30 61 -104 73 -157 26z m112 -31 c36 -36 20 -125 -24 -136 -56
-14 -94 33 -82 101 11 55 67 74 106 35z"/>
<path d="M1450 518 c0 -13 13 -66 28 -118 25 -87 29 -95 52 -95 23 0 27 8 53
103 29 106 30 145 2 122 -8 -6 -22 -47 -32 -91 -10 -43 -20 -79 -23 -79 -3 0
-13 35 -23 78 -16 73 -30 102 -49 102 -4 0 -8 -10 -8 -22z"/>
<path d="M1688 528 c-36 -13 -41 -54 -5 -43 48 15 78 17 92 5 23 -19 18 -40
-9 -40 -37 0 -86 -20 -96 -40 -33 -61 5 -105 91 -105 34 -1 59 4 60 10 0 5 0
51 -1 100 -1 78 -3 92 -21 108 -23 19 -69 21 -111 5z m102 -137 c0 -47 -80
-71 -89 -27 -4 25 24 46 61 46 21 0 28 -5 28 -19z"/>
<path d="M2093 528 c-12 -6 -29 -25 -37 -43 -56 -116 60 -239 151 -161 21 19
25 27 16 36 -9 10 -17 9 -34 -4 -31 -22 -65 -20 -89 4 -38 38 -27 49 53 52 67
3 72 5 75 26 11 74 -65 124 -135 90z m91 -50 c15 -25 5 -29 -55 -26 l-54 3 23
23 c27 27 69 27 86 0z"/>
<path d="M2297 534 c-4 -4 -7 -49 -7 -101 0 -80 3 -96 20 -113 21 -21 65 -26
90 -10 9 5 19 5 28 -2 25 -22 33 7 30 118 -2 89 -6 109 -18 109 -12 0 -16 -17
-18 -80 -3 -90 -19 -118 -61 -113 -25 3 -26 5 -31 97 -5 86 -14 114 -33 95z"/>
<path d="M2535 528 c-3 -8 -4 -61 -3 -119 2 -84 6 -104 18 -104 12 0 16 16 18
75 3 79 16 104 60 121 12 5 22 13 22 19 0 18 -30 23 -57 11 -19 -9 -29 -9 -39
0 -11 9 -15 8 -19 -3z"/>
<path d="M2692 523 c-48 -42 -25 -105 42 -117 44 -8 63 -30 45 -52 -13 -15
-23 -15 -91 2 -39 9 -38 -20 2 -41 39 -20 83 -19 108 3 51 43 31 99 -43 123
-52 16 -63 34 -33 53 13 8 26 7 50 -2 25 -9 34 -9 40 1 12 18 -29 47 -67 47
-18 0 -42 -8 -53 -17z"/>
<path d="M2950 379 c0 -48 -49 -108 -115 -139 -22 -11 -34 -20 -27 -20 26 0
92 41 117 74 24 31 46 106 31 106 -3 0 -6 -9 -6 -21z"/>
<path d="M1409 143 c-1 -5 -1 -11 0 -15 0 -5 -6 -8 -14 -8 -18 0 -37 -34 -29
-54 3 -9 17 -16 30 -16 22 0 24 4 24 50 0 28 -2 50 -5 50 -3 0 -6 -3 -6 -7z"/>
<path d="M2681 102 c-1 -50 0 -53 22 -50 17 2 22 10 22 33 0 20 -5 30 -15 30
-8 0 -18 9 -22 20 -3 12 -6 -2 -7 -33z m37 -19 c-5 -25 -28 -28 -28 -4 0 12 6
21 16 21 9 0 14 -7 12 -17z"/>
<path d="M2740 100 c0 -27 5 -50 10 -50 6 0 10 23 10 50 0 28 -4 50 -10 50 -5
0 -10 -22 -10 -50z"/>
<path d="M830 95 c0 -43 1 -45 28 -44 16 1 20 3 10 6 -13 3 -18 15 -18 44 0
21 -4 39 -10 39 -5 0 -10 -20 -10 -45z"/>
<path d="M1182 116 c-31 -30 -26 -60 11 -64 26 -3 27 -2 27 42 0 52 -5 55 -38
22z"/>
<path d="M894 106 c-10 -26 1 -51 24 -54 12 -2 22 1 22 7 0 6 -6 8 -14 5 -8
-3 -17 -1 -21 5 -3 7 3 11 15 11 15 0 20 5 18 17 -4 23 -36 29 -44 9z"/>
<path d="M994 111 c-8 -9 -4 -61 6 -61 6 0 10 11 10 25 0 14 5 25 10 25 6 0
10 -11 10 -25 0 -14 5 -25 10 -25 6 0 10 11 10 25 0 14 5 25 10 25 6 0 10 -11
10 -25 0 -14 5 -25 11 -25 6 0 8 7 5 16 -3 9 -6 24 -6 34 0 15 -7 18 -41 17
-22 -1 -42 -4 -45 -6z"/>
<path d="M1112 111 c-23 -14 -10 -56 18 -58 l25 -3 -25 12 -25 11 23 5 c15 2
22 9 20 19 -4 20 -19 26 -36 14z"/>
<path d="M1237 113 c-11 -10 -8 -63 3 -63 6 0 10 16 10 35 0 36 -2 40 -13 28z"/>
<path d="M1270 111 c0 -6 8 -11 18 -12 12 0 11 -3 -6 -10 -30 -11 -24 -33 10
-37 24 -3 25 -1 19 30 -6 30 -41 55 -41 29z"/>
<path d="M1441 88 c-1 -34 2 -38 24 -38 22 0 25 4 24 38 -1 36 -2 36 -8 7 -3
-16 -11 -30 -16 -30 -5 0 -13 14 -16 30 -6 29 -7 29 -8 -7z"/>
<path d="M1550 84 c0 -19 5 -34 11 -34 5 0 9 10 7 22 -5 32 20 34 25 1 4 -22
5 -20 3 7 -1 29 -5 35 -23 36 -20 1 -23 -4 -23 -32z"/>
<path d="M1620 87 c0 -33 3 -37 25 -37 22 0 25 4 24 38 -1 36 -2 36 -8 7 -7
-33 -26 -37 -26 -5 0 10 -4 22 -8 26 -4 4 -7 -9 -7 -29z"/>
<path d="M1690 83 c0 -18 5 -33 10 -33 6 0 10 11 10 25 0 34 18 32 23 -2 l4
-28 2 28 c0 18 6 27 14 24 6 -2 11 -14 10 -26 -2 -11 2 -21 8 -21 6 0 9 14 7
33 -3 30 -5 32 -45 33 -42 0 -43 0 -43 -33z"/>
<path d="M1800 105 c-19 -23 -3 -55 28 -54 24 2 24 2 5 6 -28 5 -30 23 -3 23
23 0 26 10 8 28 -16 16 -23 15 -38 -3z"/>
<path d="M1860 83 c0 -18 5 -33 10 -33 6 0 10 11 10 25 0 14 5 25 10 25 6 0
10 4 10 9 0 6 -9 9 -20 8 -16 -1 -20 -8 -20 -34z"/>
<path d="M1947 113 c-15 -15 -7 -55 12 -60 11 -3 22 -12 24 -22 3 -9 5 8 6 37
1 44 -2 52 -17 52 -10 0 -22 -3 -25 -7z"/>
<path d="M2010 87 c0 -33 3 -37 25 -37 22 0 25 4 24 38 -1 36 -2 36 -8 7 -7
-32 -26 -37 -26 -6 0 11 -3 23 -7 27 -5 4 -8 -9 -8 -29z"/>
<path d="M2084 106 c-11 -28 0 -51 26 -53 l25 -3 -25 12 -25 11 23 5 c15 2 22
9 20 20 -4 22 -36 28 -44 8z"/>
<path d="M2180 84 c0 -19 5 -34 10 -34 6 0 10 11 10 25 0 14 5 25 10 25 19 0
10 16 -10 17 -16 1 -20 -4 -20 -33z"/>
<path d="M2234 106 c-11 -28 0 -51 26 -53 l25 -3 -25 12 -25 11 23 5 c15 2 22
9 20 20 -4 22 -36 28 -44 8z"/>
<path d="M2295 109 c-4 -5 1 -19 10 -29 15 -17 15 -19 -2 -23 -15 -4 -14 -5 4
-6 30 -1 40 19 18 36 -17 12 -18 13 -1 13 9 0 14 5 11 10 -8 13 -32 13 -40 -1z"/>
<path d="M2350 70 c0 -27 5 -50 10 -50 6 0 10 7 10 15 0 8 6 15 14 15 20 0 30
38 16 55 -7 8 -21 15 -31 15 -16 0 -19 -8 -19 -50z"/>
<path d="M2424 106 c-10 -26 0 -51 21 -51 16 0 20 7 20 30 0 33 -30 49 -41 21z"/>
<path d="M2491 81 c2 -30 3 -31 6 -8 3 15 11 27 19 27 10 0 13 -7 8 -25 -4
-16 -2 -25 6 -25 7 0 10 13 8 33 -2 25 -8 32 -25 33 -20 1 -23 -3 -22 -35z"/>
<path d="M2561 106 c-10 -11 -8 -17 6 -25 16 -9 16 -12 3 -21 -12 -8 -11 -10
8 -10 26 0 30 25 5 39 -17 10 -17 10 0 11 10 0 15 5 12 10 -9 14 -20 12 -34
-4z"/>
<path d="M2615 111 c-3 -7 3 -11 17 -12 l23 0 -23 -10 c-28 -11 -24 -33 7 -37
20 -3 22 0 19 30 -3 33 -29 51 -43 29z"/>
<path d="M2784 106 c-10 -26 1 -51 24 -54 12 -2 22 1 22 7 0 6 -6 8 -14 5 -8
-3 -17 -1 -21 5 -3 7 3 11 15 11 15 0 20 5 18 17 -4 23 -36 29 -44 9z"/>
</g>
</svg>
