<?xml version="1.0" standalone="no"?>
<!DOCTYPE svg PUBLIC "-//W3C//DTD SVG 20010904//EN"
 "http://www.w3.org/TR/2001/REC-SVG-20010904/DTD/svg10.dtd">
<svg version="1.0" xmlns="http://www.w3.org/2000/svg"
 width="833.000000pt" height="231.000000pt" viewBox="0 0 833.000000 231.000000"
 preserveAspectRatio="xMidYMid meet">

<g transform="translate(0.000000,231.000000) scale(0.100000,-0.100000)"
fill="#000000" stroke="none">
<path d="M976 2265 c-353 -73 -654 -310 -802 -629 -97 -211 -127 -470 -80
-691 153 -714 914 -1094 1572 -786 340 159 587 499 630 864 l7 57 99 0 c107 0
159 14 177 48 19 36 13 72 -18 103 -29 29 -31 29 -144 29 l-114 0 -12 83 c-64
426 -386 784 -812 903 -81 22 -118 27 -264 30 -121 2 -190 -1 -239 -11z m474
-28 c119 -31 205 -66 295 -120 l70 -42 -310 -6 c-278 -5 -318 -8 -383 -28
-312 -92 -548 -369 -602 -705 -20 -119 -8 -321 24 -429 49 -163 123 -284 249
-403 88 -85 182 -142 292 -181 l80 -28 340 -5 340 -5 -45 -33 c-94 -70 -257
-137 -409 -167 -116 -24 -362 -17 -475 14 -394 105 -690 403 -798 801 -20 75
-23 107 -22 270 0 158 3 197 22 263 53 193 143 355 272 491 164 172 382 290
600 326 41 6 82 13 90 15 8 2 74 2 145 0 95 -3 155 -10 225 -28z m144 -527
c70 -27 193 -138 182 -165 -3 -9 -2 -13 3 -10 5 3 12 -4 16 -15 3 -11 9 -20
13 -20 4 0 8 -10 9 -22 5 -43 10 -83 13 -88 13 -23 14 -237 1 -224 -2 2 -13
-3 -23 -13 -14 -13 -18 -13 -18 -2 -1 10 -3 10 -10 -3 -9 -14 -29 -16 -138
-16 -84 0 -129 4 -134 12 -6 8 -8 7 -8 -2 0 -17 -160 -15 -160 2 0 7 -3 6 -8
-2 -8 -11 -50 -13 -206 -12 -28 1 -28 0 -22 -40 3 -22 13 -60 22 -83 9 -23 16
-50 17 -59 1 -9 4 -16 7 -15 12 3 65 -56 63 -72 -1 -9 0 -11 3 -3 8 18 24 15
24 -5 0 -15 2 -16 10 -3 8 12 10 12 15 -2 4 -9 13 -14 21 -11 8 3 14 0 14 -7
0 -6 5 -8 11 -4 6 3 15 0 20 -7 5 -8 9 -9 9 -4 0 6 22 8 52 6 100 -7 176 21
254 92 34 31 114 50 114 28 0 -7 4 -9 10 -6 15 9 58 -37 60 -65 4 -46 0 -61
-12 -54 -7 4 -8 3 -4 -5 7 -11 -53 -85 -63 -76 -2 3 -10 -4 -18 -15 -8 -11
-21 -20 -29 -20 -8 0 -14 -4 -14 -9 0 -13 -57 -34 -71 -25 -7 4 -10 3 -5 -4
21 -34 -212 -53 -328 -28 -205 46 -333 174 -382 382 -22 95 -15 302 15 395 50
157 158 264 315 311 89 26 278 20 360 -12z m694 -537 l3 -113 -136 0 -137 0
-28 28 c-56 57 -46 140 23 183 28 17 47 19 152 17 l120 -3 3 -112z"/>
<path d="M1399 1552 c-2 -5 -26 -12 -54 -13 -29 -2 -55 -10 -62 -19 -7 -8 -13
-11 -13 -7 0 4 -10 3 -21 -4 -17 -9 -24 -8 -31 2 -6 10 -7 7 -3 -8 4 -14 2
-23 -5 -23 -16 0 -70 -58 -70 -75 0 -8 -4 -15 -10 -15 -5 0 -10 -11 -10 -23 0
-23 4 -24 73 -26 39 -1 73 -6 75 -11 2 -6 10 -6 21 0 10 5 20 7 23 5 3 -3 70
-5 149 -6 86 -1 147 -5 150 -11 4 -6 10 -1 13 10 4 11 -2 46 -14 79 -12 32
-21 67 -21 78 0 16 -2 17 -9 5 -8 -12 -10 -12 -15 2 -6 15 -102 52 -135 51 -8
0 -18 4 -21 10 -4 6 -8 6 -10 -1z"/>
<path d="M5306 1638 c-11 -15 -16 -45 -16 -85 l0 -63 -38 0 c-25 0 -45 -7 -55
-18 -38 -42 -7 -92 56 -92 l37 0 0 -198 c0 -234 11 -291 63 -322 59 -37 172
-16 235 42 62 59 -14 131 -81 77 -15 -11 -42 -23 -60 -26 -32 -5 -34 -3 -41
27 -3 18 -6 115 -6 216 l0 184 78 0 c64 0 82 4 95 18 21 23 21 41 1 70 -13 20
-24 22 -95 22 l-79 0 0 69 c0 50 -4 74 -16 85 -22 23 -60 20 -78 -6z"/>
<path d="M2947 1490 c-21 -6 -51 -17 -67 -25 -28 -14 -31 -14 -50 5 -22 22
-42 25 -71 10 -18 -10 -19 -24 -19 -308 0 -219 3 -301 12 -310 16 -16 63 -15
75 1 6 6 13 104 17 217 7 226 9 232 76 278 45 30 144 32 160 3 6 -12 10 -109
10 -246 0 -137 4 -234 10 -246 12 -22 68 -27 88 -7 9 9 12 80 12 257 0 278 -7
309 -72 349 -40 25 -126 35 -181 22z"/>
<path d="M3529 1487 c-138 -52 -196 -159 -187 -348 4 -80 10 -108 32 -153 51
-104 145 -153 280 -144 166 11 246 107 254 304 7 168 -37 268 -140 320 -63 32
-182 42 -239 21z m194 -124 c56 -33 72 -75 72 -188 0 -88 -3 -105 -25 -144
-64 -112 -235 -108 -292 7 -32 65 -33 208 -2 267 30 57 92 88 162 82 29 -3 67
-14 85 -24z"/>
<path d="M4730 1484 c-102 -28 -141 -62 -124 -111 13 -37 43 -40 107 -12 69
30 185 33 215 6 19 -17 40 -92 30 -103 -3 -2 -43 -9 -89 -14 -111 -14 -199
-56 -237 -113 -35 -52 -37 -132 -6 -192 45 -86 173 -127 284 -91 47 15 52 15
76 0 24 -16 27 -16 52 3 l27 20 0 224 c0 123 -4 241 -8 262 -24 112 -165 164
-327 121z m230 -381 c0 -21 -5 -55 -11 -76 -8 -31 -18 -42 -52 -58 -91 -41
-187 -5 -187 69 0 52 96 101 198 102 l52 0 0 -37z"/>
<path d="M5870 1491 c-78 -24 -131 -72 -169 -151 -23 -49 -26 -67 -26 -170 0
-99 4 -122 24 -167 49 -109 156 -170 285 -161 70 5 123 27 172 73 39 37 43 66
13 96 -24 24 -48 19 -101 -24 -29 -23 -51 -31 -92 -35 -101 -8 -172 48 -191
151 l-7 37 153 1 c263 1 271 5 258 127 -12 114 -62 186 -148 217 -46 16 -128
19 -171 6z m138 -112 c35 -12 56 -40 66 -87 l8 -32 -147 0 -146 0 7 23 c26 83
123 127 212 96z"/>
<path d="M7243 1490 c-17 -4 -49 -17 -69 -29 l-38 -23 -19 26 c-21 30 -58 34
-81 10 -14 -13 -16 -55 -16 -308 0 -312 1 -316 50 -316 54 0 60 20 60 207 0
168 1 172 28 224 31 59 80 99 121 99 40 0 71 26 71 60 0 18 -8 34 -22 44 -24
17 -36 18 -85 6z"/>
<path d="M7516 1486 c-82 -31 -122 -98 -114 -188 8 -77 64 -136 152 -159 161
-43 195 -67 181 -128 -15 -67 -123 -82 -220 -31 -31 17 -65 30 -75 30 -21 0
-50 -36 -50 -61 0 -48 132 -109 236 -109 154 0 242 96 213 232 -20 89 -76 133
-210 163 -43 9 -86 25 -98 36 -25 23 -28 71 -6 93 32 32 150 32 191 1 29 -22
71 -18 88 8 23 35 10 62 -47 93 -62 34 -178 43 -241 20z"/>
<path d="M4032 1478 c-7 -7 -12 -23 -12 -37 0 -45 147 -561 166 -582 20 -22
90 -26 118 -6 12 9 43 104 97 297 43 157 79 293 79 302 0 18 -28 38 -53 38
-47 0 -59 -32 -168 -450 l-11 -45 -60 225 c-48 185 -63 229 -84 248 -28 24
-54 28 -72 10z"/>
<path d="M6375 1474 c-14 -14 -16 -47 -13 -274 3 -243 4 -260 24 -286 40 -54
68 -67 151 -72 62 -3 89 0 130 16 44 17 54 18 64 6 14 -17 61 -18 77 -2 9 9
12 90 12 304 0 317 -1 324 -55 324 -49 0 -55 -27 -55 -244 0 -182 -2 -201 -20
-231 -11 -18 -36 -40 -54 -49 -43 -20 -115 -21 -144 0 -22 15 -22 19 -22 250
0 221 -1 235 -20 254 -24 24 -53 26 -75 4z"/>
<path d="M3131 404 c-23 -29 -26 -40 -13 -48 13 -8 65 50 58 63 -11 17 -23 13
-45 -15z"/>
<path d="M5059 399 c-29 -42 -12 -55 28 -19 22 20 28 31 20 39 -17 17 -24 14
-48 -20z"/>
<path d="M3432 397 c-15 -17 1 -42 23 -33 18 6 17 37 -1 43 -6 2 -16 -2 -22
-10z"/>
<path d="M5303 394 c-8 -21 13 -42 28 -27 13 13 5 43 -11 43 -6 0 -13 -7 -17
-16z"/>
<path d="M3340 360 c0 -39 -1 -40 -33 -40 -67 0 -104 -92 -63 -155 14 -21 23
-24 71 -23 l55 2 0 128 c0 107 -2 128 -15 128 -11 0 -15 -11 -15 -40z m-2
-118 c3 -47 -10 -72 -39 -72 -21 0 -39 28 -39 61 0 30 29 61 54 57 17 -2 22
-11 24 -46z"/>
<path d="M3910 360 c0 -39 -1 -40 -33 -40 -68 0 -105 -91 -63 -154 14 -22 23
-25 71 -24 l55 2 0 128 c0 107 -2 128 -15 128 -11 0 -15 -11 -15 -40z m-2
-118 c3 -47 -10 -72 -39 -72 -21 0 -39 28 -39 61 0 30 29 61 54 57 17 -2 22
-11 24 -46z"/>
<path d="M7440 276 l0 -125 37 -7 c73 -14 118 26 109 99 -6 54 -32 80 -73 74
-31 -5 -32 -5 -35 36 -2 30 -8 43 -20 45 -16 3 -18 -8 -18 -122z m98 2 c7 -7
12 -28 12 -48 0 -42 -14 -60 -47 -60 -21 0 -23 4 -23 53 0 30 3 57 7 60 10 11
38 8 51 -5z"/>
<path d="M7620 270 l0 -130 25 0 25 0 0 130 0 130 -25 0 -25 0 0 -130z"/>
<path d="M2310 265 l0 -125 65 0 c58 0 65 2 65 20 0 17 -7 20 -45 20 l-45 0 0
105 c0 98 -1 105 -20 105 -19 0 -20 -7 -20 -125z"/>
<path d="M2496 298 c-37 -34 -39 -105 -4 -138 29 -26 111 -25 116 2 3 13 -3
15 -36 11 -28 -4 -43 -1 -55 12 -28 27 -20 35 38 35 l55 0 0 33 c0 63 -65 89
-114 45z m82 -35 c3 -21 -1 -23 -37 -23 -27 0 -41 4 -41 13 0 41 72 50 78 10z"/>
<path d="M2770 228 c0 -72 3 -88 15 -88 12 0 15 14 15 64 0 69 14 92 50 81 18
-6 20 -15 20 -76 0 -55 3 -69 15 -69 12 0 15 14 15 65 0 55 3 66 21 75 39 21
49 6 49 -70 0 -63 2 -70 20 -70 18 0 20 7 20 74 0 54 -4 79 -16 90 -18 18 -56
21 -84 6 -11 -6 -21 -6 -25 -1 -3 5 -30 9 -60 8 l-55 -1 0 -88z"/>
<path d="M3075 295 c-35 -34 -35 -96 0 -131 20 -20 33 -25 68 -22 30 2 43 8
45 20 3 14 -3 16 -32 11 -37 -6 -66 8 -66 33 0 9 17 14 53 16 l52 3 -2 35 c-3
61 -72 82 -118 35z m83 -32 c3 -20 -1 -23 -31 -23 -41 0 -49 7 -36 32 15 28
63 21 67 -9z"/>
<path d="M3430 230 c0 -73 3 -90 15 -90 12 0 15 17 15 90 0 73 -3 90 -15 90
-12 0 -15 -17 -15 -90z"/>
<path d="M3533 313 c-7 -2 -13 -10 -13 -17 0 -8 15 -12 42 -12 31 1 43 -3 46
-15 2 -12 -7 -18 -33 -22 -48 -8 -65 -23 -65 -57 0 -39 17 -49 84 -47 l58 1
-4 74 c-3 59 -7 77 -23 88 -18 14 -67 18 -92 7z m75 -115 c-4 -31 -58 -40 -58
-10 0 25 8 32 37 32 20 0 24 -5 21 -22z"/>
<path d="M4000 241 c0 -51 4 -82 13 -89 6 -6 38 -10 70 -10 l57 1 0 88 c0 82
-2 89 -20 89 -18 0 -20 -7 -20 -70 0 -56 -3 -72 -16 -77 -34 -13 -49 11 -52
81 -2 50 -6 66 -17 66 -12 0 -15 -17 -15 -79z"/>
<path d="M4300 228 c0 -81 2 -88 20 -88 17 0 19 8 22 66 3 70 18 94 52 81 13
-5 16 -21 16 -77 0 -65 2 -70 21 -70 20 0 21 4 17 80 -2 55 -8 84 -17 89 -8 5
-40 9 -72 8 l-59 0 0 -89z"/>
<path d="M4500 249 c0 -100 7 -109 80 -107 l60 2 0 88 c0 70 -3 88 -15 88 -11
0 -15 -16 -17 -66 -3 -70 -18 -94 -52 -81 -13 5 -16 21 -16 77 0 63 -2 70 -20
70 -18 0 -20 -7 -20 -71z"/>
<path d="M4700 228 c0 -72 3 -88 15 -88 12 0 15 14 15 64 0 69 14 92 50 81 18
-6 20 -15 20 -76 0 -62 2 -69 20 -69 18 0 20 7 20 69 0 61 3 70 20 76 33 10
40 -3 40 -76 0 -62 2 -69 20 -69 18 0 20 7 20 71 0 39 -5 79 -10 90 -12 21
-44 25 -84 9 -14 -5 -28 -5 -31 0 -3 4 -30 8 -60 7 l-55 -1 0 -88z"/>
<path d="M5009 301 c-20 -16 -24 -29 -24 -71 0 -43 4 -55 24 -71 30 -24 104
-23 109 2 2 12 -5 14 -33 11 -37 -4 -65 10 -65 34 0 10 15 14 55 14 54 0 55 0
55 30 0 61 -71 91 -121 51z m81 -26 c17 -21 3 -35 -36 -35 -26 0 -34 4 -34 18
0 10 3 22 7 25 12 12 50 7 63 -8z"/>
<path d="M5170 230 c0 -83 1 -90 20 -90 18 0 20 7 20 65 0 65 0 66 30 72 21 4
30 11 30 24 0 22 -29 26 -48 7 -9 -9 -12 -9 -12 0 0 7 -9 12 -20 12 -19 0 -20
-7 -20 -90z"/>
<path d="M5300 230 c0 -83 1 -90 20 -90 19 0 20 7 20 90 0 83 -1 90 -20 90
-19 0 -20 -7 -20 -90z"/>
<path d="M5411 302 c-27 -22 -38 -82 -21 -122 13 -32 45 -46 80 -37 17 4 20 0
20 -34 0 -32 3 -39 20 -39 19 0 20 7 20 123 l0 123 -49 2 c-34 1 -55 -3 -70
-16z m74 -72 c0 -45 -3 -55 -18 -58 -28 -6 -47 17 -47 57 0 42 16 63 45 59 17
-3 20 -11 20 -58z"/>
<path d="M5580 249 c0 -101 6 -109 85 -107 l65 1 0 88 c0 82 -2 89 -20 89 -18
0 -20 -7 -20 -70 0 -65 -1 -70 -24 -76 -39 -9 -46 2 -46 77 0 62 -2 69 -20 69
-18 0 -20 -7 -20 -71z"/>
<path d="M5796 299 c-36 -29 -38 -105 -2 -138 29 -28 109 -27 114 1 3 13 -3
15 -36 11 -28 -4 -43 -1 -55 12 -28 27 -20 35 38 35 l55 0 0 33 c0 63 -61 87
-114 46z m82 -36 c3 -21 -1 -23 -37 -23 -27 0 -41 4 -41 13 0 41 72 50 78 10z"/>
<path d="M6070 230 c0 -73 3 -90 15 -90 12 0 15 13 15 58 0 60 11 82 42 82 11
0 18 7 18 20 0 22 -12 25 -41 10 -13 -7 -19 -7 -19 0 0 5 -7 10 -15 10 -12 0
-15 -17 -15 -90z"/>
<path d="M6216 299 c-36 -29 -38 -105 -2 -138 29 -28 109 -27 114 1 3 13 -3
15 -36 11 -28 -4 -43 -1 -55 12 -28 27 -20 35 38 35 l55 0 0 33 c0 63 -61 87
-114 46z m82 -36 c3 -21 -1 -23 -37 -23 -27 0 -41 4 -41 13 0 41 72 50 78 10z"/>
<path d="M6388 309 c-11 -6 -18 -22 -18 -39 0 -24 7 -33 41 -50 48 -25 46 -45
-5 -45 -27 0 -36 -4 -34 -15 2 -10 17 -16 45 -18 36 -3 44 1 59 22 15 24 15
28 0 51 -9 14 -23 25 -31 25 -19 0 -47 29 -39 42 4 6 22 8 40 5 24 -4 34 -2
34 8 0 24 -59 34 -92 14z"/>
<path d="M6530 194 c0 -117 1 -124 20 -124 16 0 20 7 20 35 0 33 2 35 34 35
67 0 102 95 56 153 -17 22 -28 25 -75 25 l-55 -1 0 -123z m98 84 c7 -7 12 -28
12 -48 0 -42 -14 -60 -47 -60 -21 0 -23 4 -23 53 0 30 3 57 7 60 10 11 38 8
51 -5z"/>
<path d="M6735 295 c-52 -51 -19 -155 49 -155 44 0 74 24 82 65 17 92 -70 152
-131 90z m85 -24 c14 -26 13 -74 -2 -89 -30 -30 -71 -2 -71 48 0 54 50 82 73
41z"/>
<path d="M6910 228 c0 -72 3 -88 15 -88 12 0 15 14 15 65 0 55 3 66 21 75 39
21 49 6 49 -70 0 -63 2 -70 20 -70 18 0 20 7 20 79 0 51 -4 82 -13 89 -7 6
-38 10 -70 9 l-57 -1 0 -88z"/>
<path d="M7118 309 c-11 -6 -18 -22 -18 -39 0 -24 7 -33 41 -50 48 -25 46 -45
-5 -45 -27 0 -36 -4 -34 -15 2 -10 17 -16 45 -18 36 -3 44 1 59 22 15 24 15
28 0 51 -9 14 -23 25 -31 25 -19 0 -47 29 -39 42 4 6 22 8 40 5 24 -4 34 -2
34 8 0 24 -59 34 -92 14z"/>
<path d="M7273 313 c-7 -2 -13 -11 -13 -18 0 -10 12 -13 42 -12 32 2 43 -2 46
-14 2 -12 -7 -18 -37 -23 -25 -4 -44 -14 -51 -25 -27 -52 0 -81 75 -79 l55 2
0 66 c0 84 -16 110 -68 109 -20 0 -43 -3 -49 -6z m87 -106 c0 -18 -21 -37 -41
-37 -22 0 -33 16 -25 35 7 19 66 20 66 2z"/>
<path d="M7735 295 c-37 -36 -35 -105 2 -135 33 -26 106 -25 111 2 3 13 -3 15
-36 11 -28 -4 -43 -1 -55 12 -28 27 -20 35 38 35 l55 0 0 33 c0 65 -68 90
-115 42z m83 -32 c3 -21 -1 -23 -37 -23 -45 0 -46 2 -30 31 15 29 63 22 67 -8z"/>
</g>
</svg>
