<?xml version="1.0" encoding="UTF-8" standalone="no"?>
<!-- Created with Inkscape (http://www.inkscape.org/) -->

<svg
   width="158.75mm"
   height="23.603117mm"
   viewBox="0 0 158.75 23.603117"
   version="1.1"
   id="svg5"
   xml:space="preserve"
   inkscape:version="1.2.2 (b0a84865, 2022-12-01)"
   sodipodi:docname="Logo Bershka.svg"
   xmlns:inkscape="http://www.inkscape.org/namespaces/inkscape"
   xmlns:sodipodi="http://sodipodi.sourceforge.net/DTD/sodipodi-0.dtd"
   xmlns="http://www.w3.org/2000/svg"
   xmlns:svg="http://www.w3.org/2000/svg"><sodipodi:namedview
     id="namedview7"
     pagecolor="#ffffff"
     bordercolor="#666666"
     borderopacity="1.0"
     inkscape:showpageshadow="2"
     inkscape:pageopacity="0.0"
     inkscape:pagecheckerboard="0"
     inkscape:deskcolor="#d1d1d1"
     inkscape:document-units="mm"
     showgrid="false"
     inkscape:zoom="0.2102413"
     inkscape:cx="180.7447"
     inkscape:cy="4.7564393"
     inkscape:window-width="1440"
     inkscape:window-height="456"
     inkscape:window-x="0"
     inkscape:window-y="25"
     inkscape:window-maximized="0"
     inkscape:current-layer="layer1" /><defs
     id="defs2" /><g
     inkscape:label="Calque 1"
     inkscape:groupmode="layer"
     id="layer1"
     transform="translate(-57.04587,-147.19753)"><g
       style="fill:none"
       id="g141"
       transform="matrix(0.19034772,0,0,0.19034772,57.04587,147.19753)"><path
         d="m 755.273,72.1639 7.957,-23.377 c 4.402,-13.0437 6.265,-18.8033 7.619,-23.7159 1.524,4.9126 3.048,10.3334 7.449,23.5465 l 7.789,23.5464 z M 229.409,121.29 h 28.274 V 75.3825 h 17.947 l 25.565,45.9075 h 34.2 L 304.581,72.8415 c 16.761,-4.9125 26.242,-16.7705 26.242,-34.7268 0,-20.836 -14.899,-35.40431 -41.649,-35.40431 H 229.409 Z M 283.756,52.6831 H 257.683 V 25.4098 h 26.073 c 9.989,0 17.608,3.5574 17.608,13.8908 0,10.1639 -7.619,13.3825 -17.608,13.3825 z M 120.376,121.29 h 90.579 V 98.4207 H 148.65 V 71.9945 h 46.559 V 49.1257 H 148.65 V 25.5792 h 62.305 V 2.71039 H 120.376 Z M 396.514,124 c 35.216,0 51.638,-16.77 51.638,-37.776 0,-22.0218 -16.93,-33.5409 -42.326,-37.0983 l -14.391,-2.0328 c -9.651,-1.3552 -15.068,-5.4208 -15.068,-12.1967 0,-6.6066 5.417,-12.705 18.793,-12.705 14.221,0 21.671,7.623 24.888,18.1257 L 447.306,31.847 C 442.565,14.0601 426.82,0 395.498,0 c -31.152,0 -48.76,16.9399 -48.76,36.4208 0,22.1912 14.56,32.8633 38.771,36.2513 l 14.899,2.0328 c 13.206,1.8634 18.116,6.4372 18.116,13.2131 0,7.9618 -6.603,13.891 -21.841,13.891 -16.761,0 -25.903,-11.5194 -28.104,-22.6997 l -28.105,9.1475 C 344.876,108.585 362.484,124 396.514,124 Z m 199.781,-2.71 h 28.274 V 91.6448 L 643.192,71.1476 671.128,121.29 H 704.82 L 662.663,49.8033 705.666,2.71039 H 667.911 L 624.569,52.3443 V 2.71039 h -28.274 z m -129.519,0 h 28.613 V 72.3333 h 47.067 V 121.29 h 28.612 V 2.71039 H 542.456 V 48.7869 H 495.389 V 2.71039 h -28.613 z m 241.091,0 h 30.475 l 8.974,-26.0878 h 46.559 l 8.634,26.0878 H 834 L 790.488,2.71039 h -38.94 z M 53.162,49.6339 28.2741,49.4645 V 25.2405 H 53.162 c 10.497,0 16.7613,3.2185 16.7613,12.0273 0,8.6393 -6.4337,12.3661 -16.7613,12.3661 z m 0.3386,49.1256 H 28.2741 V 70.9781 l 25.2265,-0.1693 c 11.1742,0 19.3009,4.0655 19.3009,14.0601 0,9.9945 -8.1267,13.8906 -19.3009,13.8906 z M 0,121.29 h 57.9026 c 25.3958,0 43.6804,-12.366 43.6804,-32.8638 0,-14.7377 -10.1579,-26.2568 -27.5964,-29.1366 C 89.5627,55.0546 97.5201,45.3989 97.5201,31.3388 97.5201,14.2295 83.8063,2.71039 57.7333,2.71039 H 0 Z"
         fill="#020203"
         id="path132" /></g></g></svg>
