<svg width="206" height="90" viewBox="0 0 206 90" fill="none" xmlns="http://www.w3.org/2000/svg">
<g clip-path="url(#clip0_1339_20774)">
<path d="M131.044 40.2762C129.908 40.2762 128.949 41.2354 128.949 42.3712C128.949 43.507 129.908 44.4662 131.044 44.4662C132.18 44.4662 133.114 43.507 133.114 42.3712C133.114 41.2354 132.18 40.2762 131.044 40.2762ZM129.429 59.4086H132.634V46.6873H129.429V59.4086ZM113.122 44.9962H118.574V59.4086H122.159V44.9962H127.611V41.7402H113.122V44.9962ZM160.91 57.036C158.916 57.036 157.452 56.0769 157.149 53.7042H166.059C166.16 53.2752 166.261 52.6189 166.261 51.9121C166.261 48.5804 163.939 46.1825 160.406 46.1825C156.241 46.1825 153.868 49.2871 153.868 53.048C153.868 56.7583 156.418 59.9134 160.936 59.9134C163.333 59.9134 165.302 58.9291 166.488 57.3389L164.192 55.5216C163.51 56.4302 162.299 57.036 160.91 57.036ZM160.33 48.8075C162.122 48.8075 163.056 50.0948 163.106 51.3821H157.25C157.604 49.7162 158.689 48.8075 160.33 48.8075ZM139.519 54.7643V49.5648H143.406V46.6873H139.519V43.507H136.288V46.6873H133.916V49.5648H136.288V54.7643C136.288 57.8689 137.803 59.661 140.983 59.661C142.043 59.661 142.801 59.5348 143.432 59.2571V56.4555C143.002 56.6321 142.422 56.7331 141.539 56.7331C140.277 56.7331 139.519 56.1778 139.519 54.7643ZM171.174 49.9686C171.174 49.3124 171.654 48.7571 172.664 48.7571C173.648 48.7571 174.481 49.4133 175.137 50.221L177.257 48.3532C176.349 47.1164 174.582 46.1825 172.638 46.1825C169.988 46.1825 168.095 47.8737 168.095 50.1201C168.095 54.5876 174.178 53.7547 174.178 55.9759C174.178 56.7331 173.648 57.3389 172.613 57.3389C171.402 57.3389 170.468 56.6321 169.685 55.6478L167.565 57.566C168.777 59.0048 170.392 59.9134 172.664 59.9134C175.061 59.9134 177.207 58.4495 177.257 55.774C177.257 51.3821 171.174 52.1393 171.174 49.9686ZM148.673 47.9494V46.6873H145.467V59.4086H148.673V51.2559C149.152 50.4482 150.162 49.59 151.727 49.59C152.307 49.59 152.736 49.6657 153.14 49.7667V46.6116C152.837 46.5107 152.459 46.4349 152.03 46.4349C150.591 46.4349 149.506 47.0912 148.673 47.9494ZM90.8489 22.7004L63.3321 17.8483C58.1461 16.9345 53.2035 19.5918 50.8865 24.0195L85.0613 59.4077H96.3471L100.412 36.3568C101.542 29.946 97.261 23.8309 90.8489 22.7004Z" fill="#E1000F"/>
<path d="M85.0612 59.4074V35.8085C85.0612 29.2979 79.7834 24.02 73.2728 24.02H45.3307C38.8201 24.02 33.5422 29.2979 33.5422 35.8085L72.6929 59.4074H85.0612Z" fill="white"/>
<path d="M54.9287 26.5502L27.412 31.4023C20.9999 32.5328 16.7187 38.6466 17.8493 45.0587L20.3804 59.4085H72.6929L68.5851 36.1129C67.4546 29.7008 61.3408 25.4197 54.9287 26.5502Z" fill="#000091"/>
<path d="M114.94 36.5493H118.525V29.0276H124.229V26.0492H118.525V21.8592H125.239V18.8809H114.94V36.5493ZM129.475 25.09V23.828H126.269V36.5493H129.475V28.3965C129.954 27.5888 130.964 26.7307 132.529 26.7307C133.11 26.7307 133.539 26.8064 133.943 26.9073V23.7523C133.64 23.6513 133.261 23.5756 132.832 23.5756C131.393 23.5756 130.308 24.2318 129.475 25.09ZM140.562 23.3232C138.24 23.3232 136.372 24.2823 135.237 25.8472L137.584 27.6393C138.265 26.7054 139.225 26.1249 140.461 26.1249C141.925 26.1249 142.935 26.9831 142.935 28.3208V28.649L139.048 29.3052C136.322 29.7595 134.833 31.1983 134.833 33.1165C134.833 35.4639 136.574 36.9279 139.124 36.9279C140.613 36.9279 142.127 36.2969 142.935 35.3125V36.5493H146.141V28.3208C146.141 25.5191 144.248 23.3232 140.562 23.3232ZM142.935 32.6874C142.304 33.6971 141.244 34.3786 139.78 34.3786C138.695 34.3786 138.013 33.8233 138.013 32.9651C138.013 32.1826 138.568 31.6274 139.906 31.4002L142.935 30.8954V32.6874ZM155.813 23.3232C154.122 23.3232 152.936 23.9795 152.052 24.8376V23.828H148.847V36.5493H152.052V28.2451C152.532 27.4374 153.39 26.3521 155.005 26.3521C156.57 26.3521 157.529 27.4122 157.529 29.1033V36.5493H160.76V28.9771C160.76 25.2162 158.564 23.3232 155.813 23.3232ZM169.583 26.3521C170.895 26.3521 171.905 26.9326 172.511 27.816L175.01 25.8977C173.823 24.3328 171.956 23.3232 169.633 23.3232C165.242 23.3232 162.617 26.4783 162.617 30.1886C162.617 33.899 165.242 37.0541 169.633 37.0541C171.956 37.0541 173.823 36.0444 175.01 34.4795L172.511 32.5612C171.905 33.4447 170.895 34.0252 169.633 34.0252C167.488 34.0252 165.948 32.435 165.948 30.1886C165.948 27.9675 167.488 26.3521 169.583 26.3521ZM185.758 32.6622C185.077 33.5709 183.865 34.1767 182.477 34.1767C180.483 34.1767 179.019 33.2175 178.716 30.8449H187.626C187.727 30.4158 187.828 29.7595 187.828 29.0528C187.828 25.721 185.506 23.3232 181.972 23.3232C177.807 23.3232 175.435 26.4278 175.435 30.1886C175.435 33.899 177.984 37.0541 182.502 37.0541C184.9 37.0541 186.869 36.0697 188.055 34.4795L185.758 32.6622ZM181.896 25.9482C183.688 25.9482 184.622 27.2355 184.673 28.5228H178.817C179.17 26.8569 180.256 25.9482 181.896 25.9482Z" fill="#000091"/>
<path d="M69.8022 72.3318H70.6128V68.3364H69.8022V72.3318ZM64.7396 69.0727H65.9725V72.3318H66.7831V69.0727H68.016V68.3364H64.7396V69.0727ZM81.3777 71.2245L79.5911 68.3364H78.5522V72.3318H79.3628V69.4437L81.1494 72.3318H82.1883V68.3364H81.3777V71.2245ZM74.5852 68.2221C73.3236 68.2221 72.4617 69.1923 72.4617 70.3339C72.4617 71.4755 73.3236 72.4461 74.5852 72.4461C75.8408 72.4461 76.7027 71.4755 76.7027 70.3339C76.7027 69.1923 75.8408 68.2221 74.5852 68.2221ZM74.5852 71.6868C73.8316 71.6868 73.2953 71.0988 73.2953 70.3339C73.2953 69.569 73.8316 68.9814 74.5852 68.9814C75.3328 68.9814 75.8694 69.569 75.8694 70.3339C75.8694 71.0988 75.3328 71.6868 74.5852 71.6868ZM85.39 68.3364L83.8775 72.3318H84.7394L85.1217 71.2928H86.7199L87.1023 72.3318H87.9642L86.4517 68.3364H85.39ZM85.373 70.6022L85.921 69.101L86.469 70.6022H85.373ZM21.066 68.3364L19.5535 72.3318H20.4154L20.7977 71.2928H22.3959L22.7782 72.3318H23.6402L22.1276 68.3364H21.066ZM21.049 70.6022L21.597 69.101L22.1449 70.6022H21.049ZM90.4643 68.3364H89.6537V72.3318H91.9825V71.5955H90.4643V68.3364ZM26.9906 70.6422H28.0065V71.3385C27.7785 71.5555 27.4529 71.6868 27.0762 71.6868C26.2943 71.6868 25.7293 71.0988 25.7293 70.3339C25.7293 69.569 26.2657 68.9814 27.0192 68.9814C27.4759 68.9814 27.8355 69.2037 28.0638 69.5293L28.7031 69.0327C28.3378 68.5474 27.7442 68.2221 27.0192 68.2221C25.7577 68.2221 24.8957 69.1923 24.8957 70.3339C24.8957 71.4755 25.7807 72.4461 27.0762 72.4461C27.8239 72.4461 28.4461 72.1261 28.8171 71.6298V69.9516H26.9906V70.6422ZM61.2862 68.3364L59.7736 72.3318H60.6356L61.0178 71.2928H62.6161L62.9984 72.3318H63.8603L62.3478 68.3364H61.2862ZM61.2692 70.6022L61.8171 69.101L62.3651 70.6022H61.2692ZM30.792 72.3318H33.1208V71.6581H31.6026V70.6309H32.8925V69.9573H31.6026V69.0097H33.1208V68.3364H30.792V72.3318ZM183.477 67.2231H182.643L181.998 67.9938H182.735L183.477 67.2231ZM37.9611 71.2245L36.1746 68.3364H35.1356V72.3318H35.9462V69.4437L37.7328 72.3318H38.7717V68.3364H37.9611V71.2245ZM57.2738 71.2245L55.4873 68.3364H54.4483V72.3318H55.2589V69.4437L57.0455 72.3318H58.0844V68.3364H57.2738V71.2245ZM46.2031 72.3318H48.532V71.6581H47.0137V70.6309H48.3036V69.9573H47.0137V69.0097H48.532V68.3364H46.2031V72.3318ZM42.7441 68.9814C43.2007 68.9814 43.5604 69.2037 43.7887 69.5293L44.4279 69.0327C44.0626 68.5474 43.469 68.2221 42.7441 68.2221C41.4825 68.2221 40.6206 69.1923 40.6206 70.3339C40.6206 71.4755 41.4825 72.4461 42.7441 72.4461C43.469 72.4461 44.0626 72.1261 44.4279 71.6298L43.7887 71.1388C43.5604 71.4641 43.2007 71.6868 42.7441 71.6868C41.9905 71.6868 41.4542 71.0988 41.4542 70.3339C41.4542 69.569 41.9905 68.9814 42.7441 68.9814ZM156.576 67.2231H155.743L155.098 67.9938H155.834L156.576 67.2231ZM166.113 70.8362C166.113 71.3728 165.805 71.6868 165.309 71.6868C164.801 71.6868 164.498 71.3728 164.498 70.8362V68.3364H163.688V70.7679C163.688 71.8181 164.304 72.4461 165.303 72.4461C166.308 72.4461 166.924 71.8181 166.924 70.7679V68.3364H166.113V70.8362ZM171.644 69.5293C171.644 68.787 171.102 68.3364 170.223 68.3364H169.002V72.3318H169.812V70.7165H170.229L171.296 72.3318H172.249L170.999 70.5622C171.41 70.3739 171.644 70.0143 171.644 69.5293ZM170.269 70.0429H169.812V69.0097H170.269C170.611 69.0097 170.811 69.2153 170.811 69.5176C170.811 69.843 170.611 70.0429 170.269 70.0429ZM160.343 68.9814C160.8 68.9814 161.16 69.2037 161.388 69.5293L162.027 69.0327C161.662 68.5474 161.068 68.2221 160.343 68.2221C159.082 68.2221 158.22 69.1923 158.22 70.3339C158.22 71.4755 159.082 72.4461 160.343 72.4461C161.068 72.4461 161.662 72.1261 162.027 71.6298L161.388 71.1388C161.16 71.4641 160.8 71.6868 160.343 71.6868C159.59 71.6868 159.053 71.0988 159.053 70.3339C159.053 69.569 159.59 68.9814 160.343 68.9814ZM154.31 72.3318H156.639V71.6581H155.121V70.6309H156.41V69.9573H155.121V69.0097H156.639V68.3364H154.31V72.3318ZM173.836 72.3318H174.647V68.3364H173.836V72.3318ZM93.7691 72.3318H96.0979V71.6581H94.5797V70.6309H95.8696V69.9573H94.5797V69.0097H96.0979V68.3364H93.7691V72.3318ZM181.211 72.3318H183.539V71.6581H182.021V70.6309H183.311V69.9573H182.021V69.0097H183.539V68.3364H181.211V72.3318ZM151.045 68.9297C151.348 68.9297 151.61 69.1297 151.844 69.4323L152.438 68.8957C152.095 68.4904 151.639 68.2221 151.039 68.2221C150.274 68.2221 149.749 68.747 149.749 69.3807C149.749 70.7335 151.564 70.5339 151.564 71.2702C151.564 71.5555 151.37 71.7268 151.051 71.7268C150.725 71.7268 150.406 71.5442 150.166 71.2358L149.578 71.7781C149.932 72.2004 150.383 72.4461 151.056 72.4461C151.793 72.4461 152.375 71.9951 152.386 71.2415C152.386 69.8716 150.571 70.0772 150.571 69.3523C150.571 69.1123 150.76 68.9297 151.045 68.9297ZM177.946 68.9297C178.248 68.9297 178.511 69.1297 178.745 69.4323L179.338 68.8957C178.996 68.4904 178.539 68.2221 177.94 68.2221C177.175 68.2221 176.65 68.747 176.65 69.3807C176.65 70.7335 178.465 70.5339 178.465 71.2702C178.465 71.5555 178.271 71.7268 177.951 71.7268C177.626 71.7268 177.306 71.5442 177.067 71.2358L176.479 71.7781C176.833 72.2004 177.284 72.4461 177.957 72.4461C178.693 72.4461 179.275 71.9951 179.287 71.2415C179.287 69.8716 177.472 70.0772 177.472 69.3523C177.472 69.1123 177.66 68.9297 177.946 68.9297ZM186.188 69.3523C186.188 69.1123 186.376 68.9297 186.661 68.9297C186.964 68.9297 187.226 69.1297 187.461 69.4323L188.054 68.8957C187.712 68.4904 187.255 68.2221 186.656 68.2221C185.891 68.2221 185.366 68.747 185.366 69.3807C185.366 70.7335 187.181 70.5339 187.181 71.2702C187.181 71.5555 186.987 71.7268 186.667 71.7268C186.342 71.7268 186.022 71.5442 185.782 71.2358L185.194 71.7781C185.548 72.2004 185.999 72.4461 186.673 72.4461C187.409 72.4461 187.991 71.9951 188.003 71.2415C188.003 69.8716 186.188 70.0772 186.188 69.3523ZM113.013 68.9297C113.316 68.9297 113.578 69.1297 113.812 69.4323L114.406 68.8957C114.063 68.4904 113.607 68.2221 113.007 68.2221C112.243 68.2221 111.718 68.747 111.718 69.3807C111.718 70.7335 113.533 70.5339 113.533 71.2702C113.533 71.5555 113.338 71.7268 113.019 71.7268C112.694 71.7268 112.374 71.5442 112.134 71.2358L111.546 71.7781C111.9 72.2004 112.351 72.4461 113.024 72.4461C113.761 72.4461 114.343 71.9951 114.355 71.2415C114.355 69.8716 112.539 70.0772 112.539 69.3523C112.539 69.1123 112.728 68.9297 113.013 68.9297ZM107.562 72.3318H109.891V71.6581H108.373V70.6309H109.663V69.9573H108.373V69.0097H109.891V68.3364H107.562V72.3318ZM103.584 68.3364H102.014V72.3318H103.584C104.851 72.3318 105.707 71.4128 105.707 70.3339C105.707 69.2553 104.851 68.3364 103.584 68.3364ZM103.595 71.5955H102.825V69.0727H103.595C104.337 69.0727 104.874 69.6206 104.874 70.3339C104.874 71.0419 104.337 71.5955 103.595 71.5955ZM119.769 69.0727H121.002V72.3318H121.812V69.0727H123.045V68.3364H119.769V69.0727ZM137.32 72.3318H139.649V71.6581H138.131V70.6309H139.421V69.9573H138.131V69.0097H139.649V68.3364H137.32V72.3318ZM142.771 68.9297C143.074 68.9297 143.336 69.1297 143.57 69.4323L144.164 68.8957C143.821 68.4904 143.365 68.2221 142.765 68.2221C142 68.2221 141.475 68.747 141.475 69.3807C141.475 70.7335 143.291 70.5339 143.291 71.2702C143.291 71.5555 143.096 71.7268 142.777 71.7268C142.451 71.7268 142.132 71.5442 141.892 71.2358L141.304 71.7781C141.658 72.2004 142.109 72.4461 142.782 72.4461C143.519 72.4461 144.101 71.9951 144.113 71.2415C144.113 69.8716 142.297 70.0772 142.297 69.3523C142.297 69.1123 142.486 68.9297 142.771 68.9297ZM124.832 72.3318H125.642V68.3364H124.832V72.3318ZM135.129 69.5293C135.129 68.787 134.586 68.3364 133.707 68.3364H132.486V72.3318H133.296V70.7165H133.713L134.78 72.3318H135.734L134.484 70.5622C134.895 70.3739 135.129 70.0143 135.129 69.5293ZM133.753 70.0429H133.296V69.0097H133.753C134.095 69.0097 134.295 69.2153 134.295 69.5176C134.295 69.843 134.095 70.0429 133.753 70.0429ZM127.423 69.0727H128.656V72.3318H129.466V69.0727H130.699V68.3364H127.423V69.0727Z" fill="#161616"/>
</g>
<defs>
<clipPath id="clip0_1339_20774">
<rect width="205.723" height="90" fill="white"/>
</clipPath>
</defs>
</svg>
