<?xml version="1.0" encoding="UTF-8"?>
<svg id="Calque_1" data-name="Calque 1" xmlns="http://www.w3.org/2000/svg" viewBox="0 0 139.21 46.4">
  <path d="M56.66,16.16c-.94-.58-2.02-.87-3.24-.87s-2.36.33-3.37.98c-.46.3-.88.65-1.25,1.05v-8.4h-3.49v22.53h3.56v-8.75c0-1.25.35-2.24,1.04-2.98.7-.74,1.59-1.11,2.68-1.11s1.91.37,2.53,1.1c.62.73.93,1.66.93,2.8v8.95h3.59v-9.04c0-1.44-.26-2.69-.78-3.76-.53-1.07-1.26-1.9-2.19-2.48h0ZM73.74,17.31c-.36-.34-.75-.65-1.17-.91-1.17-.74-2.47-1.11-3.93-1.11s-2.81.36-4.02,1.08c-1.21.72-2.15,1.71-2.83,2.97-.69,1.27-1.03,2.69-1.03,4.28s.34,3,1.03,4.25c.68,1.25,1.63,2.22,2.83,2.93,1.21.71,2.55,1.06,4.02,1.06s2.76-.37,3.93-1.11c.42-.26.81-.57,1.17-.91v1.61h3.59v-15.77h-3.59v1.64h0ZM73.13,26.08c-.4.74-.97,1.31-1.7,1.72-.73.41-1.54.61-2.44.61s-1.67-.21-2.39-.63c-.72-.42-1.28-1-1.7-1.74-.42-.74-.63-1.57-.63-2.5s.21-1.72.63-2.46c.41-.74.98-1.32,1.7-1.75.72-.43,1.51-.64,2.39-.64s1.71.21,2.44.63c.72.42,1.29,1,1.7,1.74.41.74.61,1.57.61,2.5s-.2,1.78-.61,2.52h0ZM91.99,16.35c-1.21-.71-2.55-1.06-4.02-1.06s-2.76.37-3.93,1.11c-.42.27-.81.57-1.17.91v-1.61h-3.56v21.78h3.56v-7.66c.36.34.75.65,1.17.91,1.17.74,2.48,1.11,3.93,1.11s2.82-.36,4.02-1.08c1.21-.72,2.15-1.71,2.84-2.98.68-1.27,1.03-2.69,1.03-4.28s-.34-3-1.03-4.25c-.68-1.25-1.63-2.22-2.84-2.93h0ZM91.7,26.05c-.42.74-.98,1.33-1.7,1.75-.72.43-1.51.64-2.39.64s-1.71-.21-2.44-.63c-.73-.42-1.29-1-1.7-1.74-.4-.74-.61-1.57-.61-2.49s.2-1.78.61-2.53c.4-.74.97-1.31,1.7-1.72.73-.41,1.54-.61,2.44-.61s1.67.21,2.39.63c.71.42,1.28,1,1.7,1.74.42.74.62,1.57.62,2.5s-.21,1.72-.62,2.46h0ZM110.09,16.35c-1.21-.71-2.55-1.06-4.02-1.06s-2.76.37-3.93,1.11c-.42.27-.81.57-1.17.91v-1.61h-3.56v21.78h3.56v-7.66c.36.34.75.65,1.17.91,1.16.74,2.47,1.11,3.93,1.11s2.82-.36,4.02-1.08c1.21-.72,2.15-1.71,2.83-2.98.68-1.27,1.03-2.69,1.03-4.28s-.34-3-1.03-4.25c-.68-1.25-1.63-2.22-2.83-2.93h0ZM109.8,26.05c-.42.74-.98,1.33-1.7,1.75-.72.43-1.51.64-2.39.64s-1.71-.21-2.44-.63c-.73-.42-1.29-1-1.7-1.74-.4-.74-.61-1.57-.61-2.49s.2-1.78.61-2.53c.4-.74.97-1.31,1.7-1.72.73-.41,1.54-.61,2.44-.61s1.67.21,2.39.63c.72.42,1.28,1,1.7,1.74.42.74.63,1.57.63,2.5s-.21,1.72-.63,2.46h0ZM128.82,18.63c-.52-1.07-1.26-1.9-2.19-2.48-.94-.58-2.02-.87-3.24-.87s-2.36.33-3.37.98c-.46.3-.88.65-1.25,1.05v-1.61h-3.5v15.74h3.56v-8.75c0-1.24.35-2.24,1.04-2.98.69-.74,1.59-1.11,2.68-1.11s1.91.37,2.53,1.09c.62.73.93,1.66.93,2.8v8.95h3.59v-9.04c0-1.44-.26-2.69-.78-3.76h0ZM36.98,23.56c-.18-3.91-2.03-7.08-5.19-8.92-3.01-1.75-6.62-2.06-10.45-.9-1.57-5.18-3.49-9.87-3.71-10.39l-.06-.15-4.23,1.75-.14.07.06.15c.22.54,2.2,5.38,3.71,10.49-2.12,1.21-4.17,2.82-5.37,4.23-1.61,1.89-2.28,4.08-1.86,6.17.39,1.95,1.67,3.58,3.61,4.59,2.33,1.2,5.12,1.08,7.1-.31,1.34-.95,3.49-3.33,2.75-8.69-.14-1-.35-2.12-.63-3.33,2.63-.84,4.93-.69,6.84.41,4.42,2.56,2.9,8.81.81,12.39-2.41,4.12-7.77,8.18-7.82,8.21l-.13.09,2.85,3.78.13-.09c.25-.19,6.16-4.64,9.07-9.62,1.87-3.2,2.82-6.73,2.68-9.93ZM14.47,23.95c.38-.96,2.88-2.84,3.62-3.38.18.88.76,3.96.38,4.92-.43,1.1-1.68,1.64-2.77,1.22-1.1-.43-1.65-1.67-1.23-2.77Z"/>
</svg>