<?xml version="1.0" encoding="UTF-8" standalone="no"?>
<!-- Created with Inkscape (http://www.inkscape.org/) -->

<svg
   xmlns:dc="http://purl.org/dc/elements/1.1/"
   xmlns:cc="http://creativecommons.org/ns#"
   xmlns:rdf="http://www.w3.org/1999/02/22-rdf-syntax-ns#"
   xmlns:svg="http://www.w3.org/2000/svg"
   xmlns="http://www.w3.org/2000/svg"
   xmlns:sodipodi="http://sodipodi.sourceforge.net/DTD/sodipodi-0.dtd"
   xmlns:inkscape="http://www.inkscape.org/namespaces/inkscape"
   width="2000"
   height="1000"
   viewBox="0 0 529.16666 264.58333"
   version="1.1"
   id="svg836"
   inkscape:version="0.92.4 (5da689c313, 2019-01-14)"
   sodipodi:docname="ambigram logo opodo (white on red background).svg">
  <defs
     id="defs830" />
  <sodipodi:namedview
     id="base"
     pagecolor="#ffffff"
     bordercolor="#666666"
     borderopacity="1.0"
     inkscape:pageopacity="0.0"
     inkscape:pageshadow="2"
     inkscape:zoom="0.24748737"
     inkscape:cx="695.30729"
     inkscape:cy="412.24077"
     inkscape:document-units="mm"
     inkscape:current-layer="layer1"
     showgrid="false"
     units="px"
     inkscape:pagecheckerboard="true"
     inkscape:window-width="1920"
     inkscape:window-height="1017"
     inkscape:window-x="-8"
     inkscape:window-y="-8"
     inkscape:window-maximized="1" />
  <metadata
     id="metadata833">
    <rdf:RDF>
      <cc:Work
         rdf:about="">
        <dc:format>image/svg+xml</dc:format>
        <dc:type
           rdf:resource="http://purl.org/dc/dcmitype/StillImage" />
        <dc:title></dc:title>
      </cc:Work>
    </rdf:RDF>
  </metadata>
  <g
     inkscape:label="Calque 1"
     inkscape:groupmode="layer"
     id="layer1"
     transform="translate(0,-32.416684)">
    <rect
       style="opacity:1;vector-effect:none;fill:#9a0000;fill-opacity:1;fill-rule:nonzero;stroke:none;stroke-width:21.25210381;stroke-linecap:square;stroke-linejoin:miter;stroke-miterlimit:4;stroke-dasharray:none;stroke-dashoffset:0;stroke-opacity:1;paint-order:normal"
       id="rect1398"
       width="529.16669"
       height="264.58334"
       x="-1.0172526e-05"
       y="32.416679"
       ry="2.1051195" />
    <path
       style="opacity:1;vector-effect:none;fill:#ffffff;fill-opacity:1;fill-rule:nonzero;stroke:none;stroke-width:23.95763206;stroke-linecap:square;stroke-linejoin:miter;stroke-miterlimit:4;stroke-dasharray:none;stroke-dashoffset:0;stroke-opacity:1;paint-order:normal"
       d="m 366.55048,98.710563 c -8.0676,0 -8.2336,0.0132 -8.98188,0.72141 -0.20674,0.19569 -0.4418,0.4985 -0.52193,0.672807 -0.10631,0.23109 -0.16255,4.66809 -0.20877,16.37938 l -0.0636,16.06206 -1.1405,-0.5085 c -2.84443,-1.26727 -5.41403,-2.0855 -8.17728,-2.60501 -1.70606,-0.32075 -8.0248,-0.32901 -10.10998,-0.0124 -9.36144,1.41901 -16.84124,5.91613 -22.09219,13.2819 -5.20376,7.29953 -7.83428,16.67438 -7.34219,26.16686 0.46932,9.05328 3.40911,16.29969 8.79998,21.69274 5.56043,5.5626 13.48615,8.79115 23.4549,9.55395 2.05369,0.15716 6.45385,0.16221 8.75967,0.009 8.38509,-0.55531 15.83388,-2.16117 20.55947,-4.43177 4.31745,-2.07444 6.26739,-4.46278 6.74326,-8.25789 0.1904,-1.51842 0.18393,-86.62475 -0.007,-87.21638 -0.20221,-0.627777 -0.90819,-1.212957 -1.65468,-1.373057 -0.40281,-0.0864 -3.27895,-0.13488 -8.0176,-0.13488 z m 53.51043,30.331997 c -3.05327,-0.0122 -6.15415,0.27355 -9.21649,0.86765 -11.11848,2.15712 -19.93989,8.55268 -24.72459,17.92605 -2.60419,5.10164 -3.79977,10.30864 -3.79977,16.54421 0,2.9959 0.19336,5.08534 0.70745,7.66257 1.40597,7.04866 4.72627,13.29341 9.57926,18.01648 1.75355,1.70659 2.99281,2.70404 4.98988,4.01474 6.7977,4.4614 15.69889,6.56201 25.10131,5.92365 5.99304,-0.40685 11.06206,-1.73128 15.78507,-4.12324 9.86991,-4.99859 16.38028,-14.13285 18.15447,-25.47287 0.23852,-1.52453 0.27794,-2.29335 0.27802,-5.45134 8e-5,-3.97926 -0.13414,-5.29304 -0.87696,-8.62222 -2.21388,-9.92243 -8.62309,-18.37584 -17.42993,-22.9893 -5.34288,-2.79884 -11.83048,-4.26905 -18.54772,-4.29638 z m -235.34635,0.13798 c -1.64504,-0.003 -3.32176,0.0352 -4.47466,0.11163 -8.3851,0.5553 -15.83388,2.16117 -20.55947,4.43177 -4.31745,2.07444 -6.26738,4.46278 -6.74326,8.25788 -0.1904,1.51842 -0.18393,86.62474 0.007,87.21638 0.20222,0.62777 0.90819,1.21295 1.65468,1.37305 0.4028,0.0864 3.27894,0.13489 8.0176,0.13489 v 0 c 8.0676,0 8.23361,-0.0132 8.98188,-0.72143 0.20674,-0.19571 0.44181,-0.49849 0.52193,-0.67281 0.10631,-0.23108 0.16256,-4.66809 0.20878,-16.37937 l 0.0636,-16.06206 1.14049,0.50851 c 2.84443,1.26728 5.41403,2.0855 8.17728,2.60501 1.70606,0.32074 8.0248,0.329 10.10998,0.0124 9.36145,-1.41899 16.84124,-5.91611 22.09219,-13.28188 5.20377,-7.29953 7.83479,-16.67438 7.34271,-26.16686 -0.46932,-9.05328 -3.40964,-16.29969 -8.8005,-21.69274 -5.56044,-5.5626 -13.48616,-8.79115 -23.4549,-9.55395 -1.02685,-0.0786 -2.63997,-0.11919 -4.28501,-0.12091 z m 80.57544,0.0274 c -2.40062,0.0103 -5.20104,0.10957 -6.37325,0.26096 -7.31555,0.94501 -13.19866,3.23453 -18.47226,7.18976 -1.57887,1.18412 -4.33866,3.86424 -5.62756,5.46426 -3.83736,4.76371 -6.23063,10.29168 -7.23522,16.71526 -0.34253,2.19027 -0.40585,6.99008 -0.1633,9.68521 0.0423,0.60748 0.10616,1.11646 0.20619,1.75233 0.71548,4.54943 2.15878,8.84634 4.17184,12.41838 5.76003,10.22077 15.64754,16.24015 28.62874,17.42993 1.90591,0.1747 7.94918,0.0665 9.82472,-0.17569 7.31555,-0.94501 13.19866,-3.23455 18.47226,-7.18976 1.57887,-1.18411 4.33919,-3.86424 5.62808,-5.46425 3.83736,-4.76372 6.23011,-10.29168 7.2347,-16.71526 0.34274,-2.1916 0.40585,-6.99564 0.16278,-9.68984 -0.0423,-0.60545 -0.10589,-1.11342 -0.20567,-1.74771 -0.71547,-4.54943 -2.15826,-8.84634 -4.17132,-12.41837 -5.76003,-10.22078 -15.64805,-16.24015 -28.62926,-17.42993 -0.71471,-0.0655 -2.0111,-0.0915 -3.45147,-0.0853 z m -155.3223,0.0992 c -1.15651,-0.005 -2.32371,0.0324 -3.49901,0.11213 -5.99305,0.40688 -11.062061,1.7313 -15.78508,4.12327 -9.869889,4.99859 -16.380259,14.13285 -18.154449,25.47286 -0.238519,1.52453 -0.277936,2.29336 -0.278018,5.45135 -9.8e-5,3.97925 0.13413,5.29304 0.87695,8.62221 2.21387,9.92243 8.623083,18.37584 17.429943,22.9893 5.342869,2.79885 11.830464,4.26902 18.547704,4.29638 3.05327,0.0124 6.15415,-0.27355 9.21649,-0.86765 11.11848,-2.15715 19.93989,-8.55268 24.72459,-17.92605 2.60419,-5.10164 3.79977,-10.30864 3.79977,-16.54421 0,-2.9959 -0.19284,-5.08535 -0.70693,-7.66257 -1.40597,-7.04866 -4.72679,-13.29341 -9.57978,-18.01649 -1.75355,-1.70659 -2.99281,-2.70404 -4.98988,-4.01473 -5.94798,-3.90372 -13.50672,-6.0003 -21.6023,-6.0358 z m 236.53905,8.78242 h 5.2e-4 c 3.56081,-0.0135 5.99831,0.66408 9.41545,2.61379 l 0.92139,0.52555 -0.0341,21.05194 -0.0346,21.05297 -0.34727,1.02373 c -0.87187,2.57125 -2.67086,4.15369 -5.54746,4.87876 -1.36572,0.34425 -5.05067,0.4509 -6.71949,0.19431 -4.0587,-0.62402 -7.12604,-2.20605 -9.88776,-5.0979 -3.57046,-3.73868 -5.80994,-9.29889 -6.6058,-16.4026 -0.19753,-1.76305 -0.19613,-6.03716 0.003,-7.86 1.07435,-9.8635 5.18543,-17.26705 11.2603,-20.27729 2.48614,-1.23201 4.53083,-1.69209 7.57576,-1.70326 z m 72.63742,0.6971 c 3.01439,0.038 6.03964,0.9697 8.46822,2.78847 0.44911,0.33631 1.33248,1.15202 1.9637,1.81229 3.73628,3.90821 6.28566,10.58751 7.013,18.37563 0.21262,2.27666 0.0863,6.63212 -0.25474,8.76639 -1.37389,8.59663 -4.92727,14.75893 -9.96013,17.27544 -2.45393,1.22703 -5.35604,1.66952 -8.12612,1.2392 -2.1503,-0.33405 -4.41227,-1.29085 -6.14846,-2.59985 -4.68644,-3.53328 -8.18841,-10.99148 -9.31726,-19.84479 -0.24913,-1.95394 -0.28131,-5.84848 -0.0641,-7.79642 0.90588,-8.12419 3.73848,-14.28133 8.02328,-17.44027 2.38453,-1.75803 5.38819,-2.61411 8.40259,-2.57609 z m -236.63826,1.05783 c 0.96422,0 1.87378,0.0459 2.49959,0.14211 4.05869,0.62402 7.12655,2.20604 9.88828,5.09788 3.57046,3.7387 5.80941,9.29889 6.60529,16.40261 0.19753,1.76305 0.19663,6.03716 -0.003,7.85998 -1.07435,9.86353 -5.18594,17.26707 -11.26081,20.27732 -2.486,1.23192 -4.53062,1.69204 -7.57525,1.70325 -3.5611,0.0135 -5.99917,-0.66397 -9.41648,-2.61379 l -0.92139,-0.52554 0.0341,-21.05194 0.0346,-21.05298 0.34726,-1.02372 c 0.87188,-2.57125 2.67087,-4.1537 5.54747,-4.87876 0.85358,-0.21516 2.61286,-0.33758 4.21989,-0.33642 z m 81.60173,0.24855 c 0.81078,-0.004 1.56499,0.0423 2.1053,0.14573 4.98704,0.95435 8.73077,4.12687 11.57707,9.80922 2.39626,4.7839 3.82689,10.95131 3.8499,16.57162 -0.0733,2.0066 -0.29984,3.99103 -0.6873,5.93347 -0.98556,4.9409 -2.91829,9.26756 -5.42241,12.13879 -1.77241,2.03221 -4.17095,3.55113 -6.67453,4.22714 -1.49866,0.40465 -4.46114,0.53515 -5.90196,0.25942 -4.98703,-0.95435 -8.73077,-4.12686 -11.57707,-9.80921 -2.39626,-4.78391 -3.82688,-10.95132 -3.84989,-16.57162 0.0733,-2.0066 0.29983,-3.99103 0.68729,-5.93347 0.98556,-4.94091 2.9183,-9.26756 5.42241,-12.13879 1.77241,-2.03221 4.17095,-3.55113 6.67453,-4.22714 0.93666,-0.25292 2.44538,-0.39873 3.79666,-0.40516 z m -155.2825,0.11938 c 0.69996,-1.9e-4 1.40089,0.0526 2.09341,0.1602 2.1503,0.33401 4.41227,1.29136 6.14846,2.60036 4.68644,3.53327 8.18841,10.99148 9.31726,19.84478 0.24913,1.95395 0.28131,5.84848 0.0641,7.79642 -0.90588,8.12419 -3.73848,14.28134 -8.02328,17.44028 -2.38453,1.75801 -5.38819,2.6141 -8.40259,2.57609 -3.01439,-0.038 -6.03964,-0.96973 -8.46821,-2.78847 -0.44912,-0.33632 -1.33249,-1.15204 -1.96371,-1.8123 -3.736279,-3.90822 -6.285648,-10.58752 -7.013008,-18.37563 -0.21262,-2.27665 -0.08631,-6.63212 0.254764,-8.76639 1.373881,-8.59663 4.927256,-14.75893 9.960114,-17.27543 1.84045,-0.92027 3.93281,-1.39939 6.03271,-1.39991 z"
       id="rect1394-1"
       inkscape:connector-curvature="0" />
  </g>
</svg>
