<?xml version="1.0" encoding="UTF-8" standalone="no"?>
<svg
   width="1000"
   height="216.534"
   viewBox="0 0 1000 216.53399"
   fill="none"
   version="1.1"
   id="svg428"
   sodipodi:docname="ProtonMail_7.svg"
   inkscape:version="1.2.2 (732a01da63, 2022-12-09)"
   xmlns:inkscape="http://www.inkscape.org/namespaces/inkscape"
   xmlns:sodipodi="http://sodipodi.sourceforge.net/DTD/sodipodi-0.dtd"
   xmlns="http://www.w3.org/2000/svg"
   xmlns:svg="http://www.w3.org/2000/svg"
   xmlns:rdf="http://www.w3.org/1999/02/22-rdf-syntax-ns#"
   xmlns:cc="http://creativecommons.org/ns#"
   xmlns:dc="http://purl.org/dc/elements/1.1/">
  <title
     id="title667">Proton Mail</title>
  <sodipodi:namedview
     id="namedview430"
     pagecolor="#ffffff"
     bordercolor="#666666"
     borderopacity="1.0"
     inkscape:showpageshadow="2"
     inkscape:pageopacity="0.0"
     inkscape:pagecheckerboard="0"
     inkscape:deskcolor="#d1d1d1"
     showgrid="false"
     inkscape:zoom="0.8"
     inkscape:cx="500"
     inkscape:cy="108.75"
     inkscape:window-width="1366"
     inkscape:window-height="705"
     inkscape:window-x="-8"
     inkscape:window-y="-8"
     inkscape:window-maximized="1"
     inkscape:current-layer="svg428" />
  <g
     id="g468"
     transform="matrix(1.7992414,0,0,1.7992414,25.00041,-14.981038)">
    <path
       d="m 404.838,45.7856 c 3.95,2.1926 7.222,5.4222 9.472,9.3538 2.228,4.0181 3.401,8.5438 3.401,13.1451 0,4.6013 -1.173,9.127 -3.401,13.1451 -2.239,3.9532 -5.522,7.2044 -9.472,9.4078 -4.23,2.3331 -8.999,3.5104 -13.821,3.4132 H 374 v -51.889 h 17.017 c 4.822,-0.0972 9.591,1.0909 13.821,3.424 z m -13.25,39.2192 c 2.884,0.054 5.726,-0.6913 8.223,-2.1495 2.487,-1.4582 4.532,-3.586 5.899,-6.1243 1.367,-2.6031 2.088,-5.4978 2.088,-8.4357 0,-2.9379 -0.711,-5.8327 -2.088,-8.4358 -1.346,-2.4842 -3.326,-4.5581 -5.759,-6.0054 -2.529,-1.5014 -5.425,-2.2575 -8.374,-2.2143 h -7.879 v 33.3001 z"
       fill="#6d4aff"
       id="path388" />
    <path
       d="m 421.963,73.1449 c -0.172,-4.0721 1.227,-8.0469 3.907,-11.1253 2.626,-2.8407 6.318,-4.2664 11.097,-4.2664 1.604,-0.0109 3.208,0.1728 4.779,0.5292 v 8.6626 c -0.753,0 -1.614,-0.0756 -2.572,-0.0756 -2.626,0 -4.553,0.6048 -5.769,1.8254 -0.657,0.7561 -1.152,1.6418 -1.464,2.5923 -0.312,0.9505 -0.431,1.955 -0.355,2.9595 v 19.993 h -9.569 z"
       fill="#6d4aff"
       id="path390" />
    <path
       d="m 445.632,51.0673 c -0.57,-0.5293 -1.022,-1.1666 -1.335,-1.8794 -0.312,-0.7129 -0.463,-1.4798 -0.452,-2.2575 -0.011,-0.7885 0.151,-1.5554 0.452,-2.2791 0.313,-0.7236 0.765,-1.3717 1.335,-1.901 0.56,-0.5616 1.216,-1.0045 1.948,-1.3069 0.732,-0.3024 1.518,-0.4537 2.304,-0.4429 0.785,-0.0108 1.56,0.1405 2.282,0.4429 0.721,0.3024 1.377,0.7453 1.926,1.3069 0.571,0.5293 1.023,1.1774 1.335,1.901 0.312,0.7237 0.463,1.5014 0.452,2.2791 0.011,0.7777 -0.14,1.5446 -0.452,2.2575 -0.312,0.7128 -0.764,1.3501 -1.335,1.8794 -0.549,0.5508 -1.205,0.9829 -1.926,1.2745 -0.722,0.2916 -1.497,0.4429 -2.272,0.4321 -0.785,0.0108 -1.571,-0.1297 -2.292,-0.4213 -0.743,-0.3024 -1.41,-0.7345 -1.97,-1.2853 z m 9.052,43.1292 h -9.569 V 58.4661 h 9.569 z"
       fill="#6d4aff"
       id="path392" />
    <path
       d="M 470.066,94.1964 456.503,58.466 h 10.075 l 6.211,18.254 c 0.958,3.1972 1.517,5.109 1.668,5.7787 h 0.151 c 0.452,-1.7174 1.065,-3.6508 1.744,-5.7787 l 6.21,-18.254 h 10.15 L 479.15,94.1964 Z"
       fill="#6d4aff"
       id="path394" />
    <path
       d="m 527.855,79.6035 h -26.887 c 0.42,2.1603 1.582,4.1153 3.272,5.5195 1.69,1.3177 3.778,2.009 5.909,1.9442 1.712,0.0648 3.412,-0.2376 4.995,-0.8749 1.248,-0.6049 2.26,-1.5878 2.917,-2.8191 h 8.858 c -0.926,3.5536 -3.143,6.6319 -6.211,8.6193 -3.089,2.0091 -6.695,3.046 -10.376,3.0028 -3.369,0.0756 -6.706,-0.7561 -9.655,-2.3871 -2.755,-1.5446 -5.016,-3.856 -6.523,-6.6535 -1.56,-2.9596 -2.357,-6.2539 -2.303,-9.6023 -0.054,-3.3484 0.753,-6.6644 2.346,-9.6023 1.507,-2.7867 3.768,-5.0874 6.512,-6.6535 2.885,-1.6094 6.136,-2.4087 9.419,-2.3331 3.218,-0.0432 6.393,0.7993 9.17,2.4303 2.702,1.5985 4.909,3.91 6.383,6.6859 1.561,2.9163 2.357,6.1891 2.314,9.4943 0.022,1.0801 -0.032,2.1602 -0.14,3.2295 z M 504.143,67.6682 c -1.636,1.3394 -2.777,3.1864 -3.251,5.2494 h 18.083 c -0.279,-2.0306 -1.324,-3.8884 -2.917,-5.1738 -1.668,-1.3717 -3.778,-2.1062 -5.941,-2.0522 -2.164,-0.0648 -4.273,0.6373 -5.974,1.9766 z"
       fill="#6d4aff"
       id="path396" />
    <path
       d="m 144,80.3119 v 13.8456 h 9.668 V 80.9167 c 0,-1.2852 0.504,-2.5272 1.417,-3.4344 0.903,-0.9072 2.138,-1.4256 3.416,-1.4256 h 9.915 c 4.619,0 9.055,-1.8468 12.321,-5.1408 3.265,-3.2832 5.102,-7.7436 5.102,-12.3875 0,-4.644 -1.837,-9.1044 -5.102,-12.3984 C 177.471,42.8468 173.035,41 168.405,41 H 144 v 17.3016 h 9.668 v -8.154 h 14.093 c 2.191,0 4.286,0.8748 5.832,2.43 1.547,1.5552 2.417,3.6612 2.417,5.8644 0,2.2032 -0.87,4.3091 -2.417,5.8643 -1.546,1.5552 -3.641,2.43 -5.832,2.43 h -10.237 c -1.773,0 -3.534,0.3456 -5.167,1.0368 -1.643,0.6804 -3.126,1.6848 -4.383,2.9484 -1.256,1.2636 -2.245,2.7648 -2.932,4.4064 -0.688,1.6308 -1.042,3.402 -1.042,5.184 z"
       fill="#1b1340"
       id="path398" />
    <path
       d="M 187.332,94.1574 V 73.0651 c 0,-8.6076 4.995,-15.4548 14.996,-15.4548 1.6,-0.0216 3.201,0.1512 4.769,0.5292 v 8.6724 c -1.139,-0.0756 -2.116,-0.0756 -2.578,-0.0756 -5.296,0 -7.573,2.4408 -7.573,7.3872 v 20.0339 z"
       fill="#1b1340"
       id="path400" />
    <path
       d="m 209.975,76.2728 c 0,-10.5839 7.949,-18.6515 19.013,-18.6515 11.064,0 19.013,8.0676 19.013,18.6515 0,10.584 -7.949,18.7272 -19.013,18.7272 -11.064,0 -19.013,-8.154 -19.013,-18.7272 z m 28.552,0 c 0,-6.0155 -4.017,-10.2815 -9.539,-10.2815 -5.532,0 -9.538,4.2552 -9.538,10.2815 0,6.0912 4.017,10.2816 9.538,10.2816 5.532,0 9.539,-4.2012 9.539,-10.2816 z"
       fill="#1b1340"
       id="path402" />
    <path
       d="m 278.744,76.2728 c 0,-10.5839 7.949,-18.6515 19.013,-18.6515 11.053,0 19.002,8.0676 19.002,18.6515 C 316.759,86.8568 308.81,95 297.757,95 286.693,95 278.744,86.846 278.744,76.2728 Z m 28.541,0 c 0,-6.0155 -4.017,-10.2815 -9.539,-10.2815 -5.521,0 -9.538,4.2552 -9.538,10.2815 0,6.0912 4.017,10.2816 9.538,10.2816 5.522,0 9.539,-4.2012 9.539,-10.2816 z"
       fill="#1b1340"
       id="path404" />
    <path
       d="M 321.754,94.1576 V 73.8321 c 0,-9.4392 5.984,-16.2216 16.661,-16.2216 10.602,0 16.585,6.7716 16.585,16.2216 v 20.3255 h -9.539 V 74.5881 c 0,-5.2488 -2.352,-8.532 -7.046,-8.532 -4.694,0 -7.047,3.2724 -7.047,8.532 v 19.5695 z"
       fill="#1b1340"
       id="path406" />
    <path
       d="m 275.865,66.0663 h -10.376 v 13.3272 c 0,4.644 1.665,6.7716 6.434,6.7716 0.451,0 1.59,0 3.029,-0.0756 v 7.8408 c -1.965,0.5292 -3.705,0.8424 -5.607,0.8424 -8.024,0 -13.481,-4.8708 -13.481,-14.0832 V 66.0663 h -6.445 v -7.6895 h 1.612 c 0.633,0 1.267,-0.1296 1.847,-0.3672 0.591,-0.2484 1.117,-0.6048 1.568,-1.0584 0.452,-0.4536 0.806,-0.9828 1.053,-1.5768 0.247,-0.594 0.365,-1.2204 0.365,-1.8576 V 46.27 h 9.614 v 12.1068 h 10.377 v 7.6895 z"
       fill="#1b1340"
       id="path408" />
    <path
       d="m 74.8827,46.7999 -41.5196,0.2327 c -1.7877,0.0111 -3.5307,-0.532 -4.9944,-1.5627 L 19.1173,38.9532 C 17.676,37.9336 15.9441,37.3906 14.1788,37.3906 H 0 V 101.128 C 0,107.135 4.90503,112 10.9609,112 H 83.4637 V 55.256 c 0,-4.688 -3.8436,-8.4894 -8.581,-8.4561 z"
       fill="url(#paint0_radial_10975_186729)"
       id="path410"
       style="fill:url(#paint0_radial_10975_186729)" />
    <path
       fill-rule="evenodd"
       clip-rule="evenodd"
       d="m 49.9553,33.7554 h 45.0838 c 6.0559,0 10.9609,4.8654 10.9609,10.8722 v 56.4894 c 0,6.007 -4.905,10.872 -10.9609,10.872 H 83.4637 V 55.256 c 0,-4.688 -3.8436,-8.4894 -8.581,-8.4561 l -41.5196,0.2327 c -1.7877,0.0111 -3.5307,-0.532 -4.9944,-1.5627 L 19.1173,38.9532 C 17.676,37.9336 15.9441,37.3906 14.1788,37.3906 H 0 V 35.8722 C 0,29.8654 4.90503,25 10.9609,25 h 20.5698 c 2.0782,0 4.1006,0.6539 5.7654,1.873 l 6.8827,5.0094 c 1.6759,1.2191 3.6983,1.873 5.7765,1.873 z"
       fill="url(#paint1_linear_10975_186729)"
       id="path412"
       style="fill:url(#paint1_linear_10975_186729)" />
  </g>
  <defs
     id="defs426">
    <radialGradient
       id="paint0_radial_10975_186729"
       cx="0"
       cy="0"
       r="1"
       gradientUnits="userSpaceOnUse"
       gradientTransform="matrix(197.794,0,0,180.137,114.878,-34.7674)">
      <stop
         offset="0.5561"
         stop-color="#6D4AFF"
         id="stop414" />
      <stop
         offset="1"
         stop-color="#FF50C3"
         id="stop416" />
    </radialGradient>
    <linearGradient
       id="paint1_linear_10975_186729"
       x1="-1.3974"
       y1="-20.4032"
       x2="129.901"
       y2="125.087"
       gradientUnits="userSpaceOnUse">
      <stop
         stop-color="#7341FF"
         id="stop419" />
      <stop
         offset="0.3593"
         stop-color="#B487FF"
         id="stop421" />
      <stop
         offset="1"
         stop-color="#FFC8FF"
         id="stop423" />
    </linearGradient>
  </defs>
  <metadata
     id="metadata665">
    <rdf:RDF>
      <cc:Work
         rdf:about="">
        <dc:title>Proton Mail</dc:title>
        <dc:subject>
          <rdf:Bag>
            <rdf:li>Proton Mail</rdf:li>
            <rdf:li>Logo</rdf:li>
            <rdf:li>Logotipo</rdf:li>
            <rdf:li>Icon</rdf:li>
            <rdf:li>Ícono</rdf:li>
            <rdf:li>Isotype</rdf:li>
            <rdf:li>Isotipo</rdf:li>
            <rdf:li>SVG</rdf:li>
            <rdf:li>Vector</rdf:li>
            <rdf:li>Scalable</rdf:li>
            <rdf:li>Escalable</rdf:li>
            <rdf:li>Proton AG</rdf:li>
            <rdf:li>Open source</rdf:li>
            <rdf:li>Código abierto</rdf:li>
          </rdf:Bag>
        </dc:subject>
      </cc:Work>
    </rdf:RDF>
  </metadata>
</svg>
