<?xml version="1.0" encoding="UTF-8" standalone="no"?>
<!-- Generator: Adobe Illustrator 27.8.1, SVG Export Plug-In . SVG Version: 6.00 Build 0)  -->

<svg
   version="1.1"
   id="Calque_1"
   x="0px"
   y="0px"
   viewBox="0 0 2297.8 1026.3"
   style="enable-background:new 0 0 2297.8 1026.3;"
   xml:space="preserve"
   sodipodi:docname="Logo Qare.svg"
   inkscape:version="1.2 (dc2aeda, 2022-05-15)"
   xmlns:inkscape="http://www.inkscape.org/namespaces/inkscape"
   xmlns:sodipodi="http://sodipodi.sourceforge.net/DTD/sodipodi-0.dtd"
   xmlns="http://www.w3.org/2000/svg"
   xmlns:svg="http://www.w3.org/2000/svg"><defs
   id="defs175" /><sodipodi:namedview
   id="namedview173"
   pagecolor="#ffffff"
   bordercolor="#000000"
   borderopacity="0.25"
   inkscape:showpageshadow="2"
   inkscape:pageopacity="0.0"
   inkscape:pagecheckerboard="0"
   inkscape:deskcolor="#d1d1d1"
   showgrid="false"
   inkscape:zoom="0.14437723"
   inkscape:cx="862.32436"
   inkscape:cy="512.5462"
   inkscape:window-width="1920"
   inkscape:window-height="1080"
   inkscape:window-x="0"
   inkscape:window-y="0"
   inkscape:window-maximized="0"
   inkscape:current-layer="Calque_1" />
<style
   type="text/css"
   id="style132">
	.st0{fill-rule:evenodd;clip-rule:evenodd;fill:#26A4A6;}
	.st1{fill:#F75E68;}
</style>
  <g
   id="g490"><path
     class="st0"
     d="m 547.9,780.8 c -1.8,-1.8 -3.5,-3.6 -5.3,-5.5 C 693.2,698.5 781.3,566 781.3,404 781.3,180.7 606.4,0 390.7,0 237.7,0 105.3,90.9 41.2,223.4 l 132.5,77.3 c 33.4,-89.8 109.9,-152.1 219.1,-152.1 147.2,0 237.9,116.9 237.8,261 0,112.4 -64.5,202 -155,236.3 0,0 12.2,102.2 67.2,129.3"
     id="path134" /><path
     class="st0"
     d="m 1350,771.4 h -135.7 c -17,-21.6 -25.4,-49.9 -25.4,-85.1 -36.8,66.8 -95.4,100.2 -176,100.4 -52.3,0 -94.9,-15.3 -127.8,-45.8 -32.9,-30.5 -49.3,-70.9 -49.3,-121.2 0,-50.9 17.5,-90.9 52.5,-120.1 35,-29.2 80,-48.1 135.2,-56.6 l 158.1,-24.8 v -20.7 c 0,-53.9 -32.2,-80.8 -96.5,-80.8 -29.7,0 -52.8,5.8 -69.5,17.3 -16.7,11.5 -24.9,25.9 -24.9,43.1 0,4.4 0.7,8.8 2.1,12.9 L 873,431 c -6.3,-14.2 -9.6,-29.6 -9.6,-45.2 0,-43.8 20.2,-82.1 60.5,-114.8 40.3,-32.7 94,-49 161.1,-49 74.9,0 131.9,16.2 171.2,48.5 39.3,32.3 58.9,80.8 58.8,145.4 v 223 c 0.1,53.9 11.7,98 35,132.5 z m -305.4,-94.8 c 40.3,0 73.2,-13.5 98.6,-40.4 25.4,-27 38.1,-65.2 38,-114.7 v -9.7 L 1054,533.3 c -58.7,10.1 -88,36.3 -88,78.7 0,20.8 7.1,36.8 21.2,47.9 14.1,11.1 33.2,16.7 57.4,16.7 z"
     id="path136" /><path
     class="st0"
     d="m 1788.6,230.2 -62.2,122 c -9.4,-2.1 -19.1,-3.2 -28.8,-3.2 -38.9,0 -69.8,14.9 -92.8,44.7 -23,29.8 -34.5,67.7 -34.5,113.6 v 264 H 1436.7 V 236.9 h 133.6 V 322 c 32.5,-66.9 81.2,-100.4 146.2,-100.4 16.5,0.3 58,4.3 72.1,8.6 z"
     id="path138" /><path
     class="st0"
     d="m 2296.6,536.5 h -405 c 4.2,40.9 19.4,73.4 45.6,97.5 26.2,24.1 59.1,36.1 98.8,36.1 65,0 113.4,-32.7 145.2,-98.1 l 99.7,58.2 c -49.5,104.2 -131.9,156.2 -247.1,156.2 -74.9,0 -138.7,-26.4 -191.4,-79.2 -52.7,-52.8 -79,-120.5 -79,-203.1 0,-83.3 26.7,-151.2 80,-203.6 53.3,-52.4 118.9,-78.7 196.7,-78.7 74.9,0 136.4,25 184.5,74.9 48.1,49.9 72.1,114 72.1,192.3 z M 2035.8,325.3 c -33,-0.6 -65.1,10.7 -90.6,31.8 -25.5,20.6 -44.1,48.6 -53.5,80.3 h 282 c -6.4,-35.2 -21.6,-62.6 -45.6,-82.4 -24.1,-19.7 -54.9,-29.7 -92.3,-29.7 z"
     id="path140" /><path
     class="st1"
     d="m 178.8,287.8 c 17,-38.4 0.6,-83.5 -36.9,-101.4 -37.5,-17.9 -82.2,-1.9 -100.3,36 C 14.4,278.9 0.2,341 0,404 0,627.2 174.9,808.1 390.7,808.1 h 3.7 c 34.3,61.5 104.5,132.3 201.5,156.8 l 66.2,-127.2 c -168.5,-29.3 -176,-195.9 -176,-195.9 -29.6,12.8 -61.4,19.5 -93.5,19.4 -131.4,0 -237.9,-107.2 -237.9,-251.4 -0.6,-42 7.7,-83.6 24.1,-122 z"
     id="path142" /></g><g
   id="g483"><path
     class="st1"
     d="m 1066.3,1026.3 v -126 h 24.7 v 9.8 c 5.3,-6.9 14.1,-11.2 25.6,-11.2 25.3,0 41.3,18.3 41.3,46.3 0,28 -17.5,46.3 -43.3,46.3 -10.1,0 -18.9,-3.4 -23.7,-9.4 v 44.3 h -24.6 z m 23.4,-81.2 c 0,15 8.7,24.9 21.9,24.9 13.2,0 21.9,-10 21.9,-24.9 0,-15.1 -8.7,-25.1 -21.9,-25.1 -13.2,0 -21.9,10 -21.9,25.1 z"
     id="path144" /><path
     class="st1"
     d="m 1199.4,991.4 c -17.3,0 -29.4,-11.6 -29.4,-26.9 0,-17.6 13.2,-28.3 32.9,-28.3 h 15 c 4.4,0 6.8,-2.9 6.8,-6.6 0,-7.5 -5.7,-12.6 -15.8,-12.6 -10.9,0 -16.6,6.8 -16.7,14.2 h -22.1 c 0.9,-18 15.5,-32.4 40.1,-32.4 22.8,0 39.3,13.2 39.3,33.5 V 990 h -24.7 v -12.5 c -3.1,8.4 -13.1,13.9 -25.4,13.9 z m -5.5,-27.9 c 0,5.9 5,10 11.9,10 11.9,0 18.9,-8.9 18.9,-20.3 V 952 h -18 c -7.6,-0.1 -12.8,4.5 -12.8,11.5 z"
     id="path146" /><path
     class="st1"
     d="m 1311.5,920.9 c -12.3,0 -17.8,10.2 -17.8,25.5 V 990 H 1269 v -89.7 h 24.7 v 15 c 4.8,-11.2 11.6,-15 22.6,-15 h 10 V 921 h -14.8 z"
     id="path148" /><path
     class="st1"
     d="m 1452.2,865.4 h 26.7 V 990 h -26.7 v -52.2 h -51.3 V 990 h -26.7 V 865.4 h 26.7 v 49.5 h 51.3 z"
     id="path150" /><path
     class="st1"
     d="m 1540.4,991.4 c -30.4,0 -46.1,-23.9 -46.1,-46.5 0,-22.8 13.9,-46.1 44.3,-46.1 31.7,0 44.3,23.3 44.3,43.8 0,3.4 -0.2,6.1 -0.4,8 H 1518 c 1.8,12.6 9.8,20.5 22.3,20.5 10,0 16.6,-3.9 18.5,-11.6 h 24.2 c -3.4,19.5 -20.5,31.9 -42.6,31.9 z M 1518.5,935 h 39.7 c -0.7,-10 -7.7,-18 -19.6,-18 -11.2,0 -17.9,5.5 -20.1,18 z"
     id="path152" /><path
     class="st1"
     d="m 1624.6,991.4 c -17.3,0 -29.4,-11.6 -29.4,-26.9 0,-17.6 13.2,-28.3 32.9,-28.3 h 15 c 4.4,0 6.8,-2.9 6.8,-6.6 0,-7.5 -5.7,-12.6 -15.8,-12.6 -10.9,0 -16.6,6.8 -16.7,14.2 h -22.1 c 0.9,-18 15.5,-32.4 40.1,-32.4 22.8,0 39.3,13.2 39.3,33.5 V 990 H 1650 v -12.5 c -3.2,8.4 -13.1,13.9 -25.4,13.9 z m -5.5,-27.9 c 0,5.9 5,10 11.9,10 11.9,0 18.9,-8.9 18.9,-20.3 V 952 h -18 c -7.7,-0.1 -12.8,4.5 -12.8,11.5 z"
     id="path154" /><path
     class="st1"
     d="M 1694.1,990 V 861.3 h 24.7 V 990 Z"
     id="path156" /><path
     class="st1"
     d="m 1748.2,873.7 h 24.9 v 26.5 h 24 v 20.7 h -24 v 35.4 c 0,8.7 4.5,12.8 12.5,12.8 h 11.6 V 990 h -14.8 c -20.7,0 -34.2,-11.8 -34.2,-32.6 v -36.5 h -17.1 v -20.7 h 17.1 z"
     id="path158" /><path
     class="st1"
     d="M 1811.8,990 V 861.3 h 24.7 v 51.5 c 5,-8.7 15,-13.9 27.4,-13.9 20.1,0 33.3,14.6 33.3,35.3 V 990 h -24.9 v -50.4 c 0,-10.9 -6.9,-18.7 -17.3,-18.7 -10.9,0 -18.5,8.4 -18.5,19.9 V 990 Z"
     id="path160" /><path
     class="st1"
     d="m 1994.8,865.4 h 26.7 V 990 h -26.7 v -52.2 h -51.3 V 990 h -26.7 V 865.4 h 26.7 v 49.5 h 51.3 z"
     id="path162" /><path
     class="st1"
     d="m 2083.1,991.4 c -30.4,0 -46.1,-23.9 -46.1,-46.5 0,-22.8 13.9,-46.1 44.3,-46.1 31.7,0 44.3,23.3 44.3,43.8 0,3.4 -0.2,6.1 -0.4,8 h -64.5 c 1.8,12.6 9.8,20.5 22.3,20.5 10,0 16.6,-3.9 18.5,-11.6 h 24.2 c -3.4,19.5 -20.5,31.9 -42.6,31.9 z M 2061.2,935 h 39.7 c -0.7,-10 -7.7,-18 -19.6,-18 -11.2,0 -17.9,5.5 -20.1,18 z"
     id="path164" /><path
     class="st1"
     d="m 2184.2,920.9 c -12.3,0 -17.8,10.2 -17.8,25.5 V 990 h -24.8 v -89.7 h 24.8 v 15 c 4.8,-11.2 11.6,-15 22.6,-15 h 10 V 921 h -14.8 z"
     id="path166" /><path
     class="st1"
     d="m 2250.4,991.4 c -27.6,0 -47.4,-19.6 -47.4,-46.3 0,-26.7 19.8,-46.3 47.4,-46.3 27.6,0 47.4,19.6 47.4,46.3 0,26.7 -19.8,46.3 -47.4,46.3 z M 2228,945.1 c 0,14.8 9.1,24.9 22.4,24.9 13.3,0 22.4,-10.1 22.4,-24.9 0,-15 -9.1,-25.1 -22.4,-25.1 -13.3,0 -22.4,10.2 -22.4,25.1 z"
     id="path168" /></g>
</svg>
