<?xml version="1.0" encoding="UTF-8" standalone="no"?>
<!DOCTYPE svg PUBLIC "-//W3C//DTD SVG 1.1//EN" "http://www.w3.org/Graphics/SVG/1.1/DTD/svg11.dtd">
<svg width="100%" height="100%" viewBox="0 0 256 74" version="1.1" xmlns="http://www.w3.org/2000/svg" xmlns:xlink="http://www.w3.org/1999/xlink" xml:space="preserve" xmlns:serif="http://www.serif.com/" style="fill-rule:evenodd;clip-rule:evenodd;stroke-linejoin:round;stroke-miterlimit:2;">
    <g transform="matrix(1,0,0,1,0.0142455,-0.4375)">
        <g id="waze-logo" transform="matrix(1.46921,0,0,1.46921,219.251,37.7073)">
            <g transform="matrix(1,0,0,1,-25,-25)">
                <clipPath id="_clip1">
                    <rect x="0" y="0" width="50" height="50"/>
                </clipPath>
                <g clip-path="url(#_clip1)">
                    <g>
                        <path d="M27.5,2.674C21.319,2.674 15.556,5.451 11.667,10.382C8.958,13.854 7.5,18.16 7.5,22.535L7.5,26.215C7.5,27.812 6.875,29.34 5.833,30.451C5,31.285 3.958,31.91 2.847,32.188C3.264,33.229 4.236,34.826 5.972,36.563C7.431,38.09 9.167,39.34 11.042,40.243L11.042,40.174C12.222,38.368 14.167,37.326 16.319,37.326C16.736,37.326 17.083,37.396 17.5,37.465C20,37.951 21.944,39.896 22.431,42.326L27.569,42.326C32.917,42.326 37.986,40.104 41.667,36.493C47.361,30.799 49.097,22.257 45.972,14.896C42.847,7.465 35.625,2.674 27.5,2.674Z" style="fill:white;"/>
                        <path d="M27.5,0.174C20.625,0.174 14.167,3.229 9.792,8.715C6.667,12.674 5,17.535 5,22.604L5,26.215C5,28.09 3.681,29.826 1.111,29.965C0.486,29.965 0,30.451 -0.069,31.076C-0.139,32.743 1.667,35.868 4.167,38.368C5.903,40.104 7.917,41.493 10.069,42.604C9.375,46.424 12.361,49.896 16.25,49.896L16.319,49.896C19.306,49.896 21.806,47.813 22.431,44.965L27.639,44.965C28.194,47.813 30.694,49.896 33.75,49.896C34.444,49.896 35.208,49.757 35.903,49.549C37.639,48.993 38.958,47.674 39.583,45.937C40.139,44.34 40.069,42.743 39.583,41.424C40.972,40.521 42.222,39.549 43.403,38.368C47.639,34.201 50,28.507 50,22.604C50,16.632 47.639,11.076 43.403,6.84C39.167,2.465 33.472,0.174 27.5,0.174ZM27.5,2.674C35.556,2.674 42.847,7.535 45.972,14.965C49.097,22.396 47.361,30.937 41.667,36.563C37.986,40.243 32.917,42.396 27.569,42.396L22.431,42.396C21.944,39.896 20,38.021 17.5,37.535C17.083,37.465 16.736,37.396 16.319,37.396C14.236,37.396 12.222,38.438 11.042,40.243L11.042,40.313C9.167,39.34 7.5,38.09 5.972,36.632C4.236,34.896 3.264,33.229 2.847,32.257C4.028,31.979 5,31.354 5.833,30.521C6.875,29.34 7.5,27.882 7.5,26.285L7.5,22.604C7.5,18.229 8.958,13.924 11.667,10.451C15.556,5.382 21.319,2.674 27.5,2.674Z"/>
                        <path d="M37.5,15.035C36.111,15.035 35,16.146 35,17.535C35,18.924 36.111,20.035 37.5,20.035C38.889,20.035 40,18.924 40,17.535C40,16.146 38.889,15.035 37.5,15.035Z"/>
                        <path d="M22.5,15.035C21.111,15.035 20,16.146 20,17.535C20,18.924 21.111,20.035 22.5,20.035C23.889,20.035 25,18.924 25,17.535C25,16.146 23.889,15.035 22.5,15.035Z"/>
                        <path d="M22.083,24.965C21.181,24.965 20.556,25.868 20.972,26.701C22.639,30.174 26.111,32.396 30,32.396C33.889,32.396 37.361,30.174 39.028,26.701C39.375,25.868 38.819,24.965 37.917,24.965C37.431,24.965 37.014,25.243 36.806,25.66C35.556,28.229 32.917,29.896 30.069,29.896C27.153,29.896 24.514,28.229 23.333,25.66C23.056,25.243 22.639,24.965 22.083,24.965Z"/>
                    </g>
                </g>
            </g>
        </g>
        <g id="rebrand_logo-6a15d41e631b1b4c85aaaa551a3f9131-_1_" transform="matrix(2.76441,0,0,2.76441,88.4468,55.1912)">
            <g transform="matrix(1,0,0,1,-32,-7)">
                <clipPath id="_clip2">
                    <rect x="0" y="0" width="64" height="14"/>
                </clipPath>
                <g clip-path="url(#_clip2)">
                    <g>
                        <path d="M0.57,0.375C0.121,0.375 -0.105,0.676 0.047,1.125L3.871,12.902C3.945,13.203 4.246,13.5 4.547,13.5L7.695,13.5C8.069,13.5 8.297,13.277 8.371,12.902L10.473,5.027L12.57,12.902C12.645,13.203 12.945,13.5 13.32,13.5L16.32,13.5C16.695,13.5 16.922,13.277 17.07,12.902L20.895,1.203C21.047,0.75 20.82,0.453 20.371,0.453L18.047,0.453C17.672,0.453 17.445,0.75 17.371,0.977L14.973,9.301L12.723,0.902C12.645,0.527 12.348,0.375 12.047,0.375L9.195,0.375C8.82,0.375 8.598,0.527 8.52,0.902L6.195,9.301L3.871,0.902C3.797,0.602 3.57,0.375 3.195,0.375L0.57,0.375ZM27.945,0C24.496,0 21.348,2.703 21.348,6.902C21.348,11.102 24.496,13.875 27.945,13.875C29.82,13.875 31.32,13.051 31.996,11.926L31.996,12.902C31.996,13.203 32.223,13.426 32.52,13.426L34.922,13.426C35.223,13.426 35.445,13.203 35.445,12.902L35.445,0.902C35.445,0.602 35.223,0.301 34.922,0.301L32.52,0.301C32.223,0.301 31.996,0.602 31.996,0.902L31.996,1.953C31.32,0.828 29.82,0 27.945,0ZM28.473,3.227C30.496,3.227 31.996,4.875 31.996,6.902C31.996,8.926 30.496,10.578 28.473,10.578C26.445,10.578 24.945,8.926 24.945,6.902C24.871,4.875 26.445,3.227 28.473,3.227ZM38.223,0.375C37.922,0.375 37.695,0.602 37.695,0.902L37.695,2.777C37.695,3.078 37.922,3.301 38.297,3.375L44.145,3.375L37.695,10.578C37.473,10.801 37.395,10.953 37.395,11.25L37.395,12.902C37.395,13.203 37.621,13.426 37.996,13.5L48.57,13.5C48.871,13.5 49.098,13.277 49.098,12.977L49.098,11.102C49.098,10.801 48.871,10.5 48.57,10.5L42.195,10.5L48.57,3.301C48.797,3.152 48.871,2.926 48.871,2.625L48.871,0.902C48.871,0.602 48.57,0.375 48.27,0.301L38.223,0.301L38.223,0.375ZM56.598,0C54.734,-0.039 52.938,0.684 51.617,2C50.301,3.316 49.578,5.113 49.621,6.977C49.621,10.875 52.473,13.875 56.598,13.875C59.52,13.875 61.246,12.75 62.297,11.328C62.445,11.102 62.52,10.727 62.223,10.5L60.496,9.301C60.422,9.227 60.27,9.227 60.195,9.227C60.047,9.227 59.895,9.301 59.746,9.453C58.984,10.352 57.848,10.852 56.672,10.801C54.871,10.801 53.445,9.602 53.223,7.727L62.598,7.727C63.121,7.727 63.195,7.426 63.195,7.125L63.195,6.453C63.348,3.078 60.723,0 56.598,0ZM56.672,2.777C58.172,2.777 59.598,3.75 59.895,5.551L53.445,5.551C53.746,3.902 55.098,2.777 56.672,2.777Z" style="fill-rule:nonzero;"/>
                    </g>
                </g>
            </g>
        </g>
    </g>
</svg>
